<?xml version="1.0" encoding="utf-8"?>
<!-- Generator: Adobe Illustrator 25.2.0, SVG Export Plug-In . SVG Version: 6.00 Build 0)  -->
<svg version="1.1" id="Layer_1" xmlns="http://www.w3.org/2000/svg" xmlns:xlink="http://www.w3.org/1999/xlink" x="0px" y="0px"
	 viewBox="0 0 242.5 108.6" style="enable-background:new 0 0 242.5 108.6;" xml:space="preserve">
<style type="text/css">
	.st0{fill:#FF7B22;}
	.st1{fill:#16211F;}
	.st2{fill:#A1D2FF;}
</style>
<g>
	<g>
		<path class="st0" d="M65.6,90c-0.1,0.3-0.3,0.6-0.5,0.9c-1.2,1.7-2.9,2.9-4.8,3.6c-1,0.4-2.2,0.8-3.3,1.1
			c-5.1,1.3-11.2,1.3-15.5-1.7c-5.1-3.6-8.4-10.5-10.8-16.3c-1.7-4.1-2.5-8.9,1.6-11.2c1.2-1,2.6-1.9,3.5-3.1c0,0.2,0,0.4,0.1,0.6
			c0.4,3.5,1.8,7.9,3.7,11.9c1.9,3.9,4.5,7.3,7.6,9.2c4.6,2.8,10.8,3.6,16.6,3.3c0.1-0.1,0.2-0.1,0.3-0.1c0.2,0,0.4,0,0.5,0.1
			c0.1,0,0.2,0,0.2,0c0.1,0.1,0.1,0.1,0.1,0.2C65.6,88.6,66,89.2,65.6,90z"/>
		<path class="st0" d="M80,79.1c-1.4,5.6-7.5,6.5-12.5,6.9c-3.2,0.3-6.8,0.2-10.3-0.3c-3.7,0-7.7-0.8-10.7-2.8
			c-2.7-1.8-4.8-4.5-6.3-7.5c-0.6-1.2-1.2-2.5-1.6-3.8c-0.8-2.3-1.2-4.6-1.2-6.9c-1.2-6,0.9-11.5,6.9-13.8c0.1,2.9,1.1,6,2.4,8.3
			c0.1,0.2,0.2,0.3,0.2,0.5c1.5,2.6,3.6,4.9,5.6,7.1c2.5,2.8,4.6,6,7.3,8.7c3.9,3.9,11.8,3.1,16.8,3.4C77.7,79,78.8,79,80,79.1z"/>
		<path class="st0" d="M122.8,83c-3.9,6.9-8.8,13-15,17.3c-1.5,1.2-3.2,2.2-4.9,3.1c-1.7,0.8-3.5,1.5-5.4,1.7
			c-0.9,0.1-3.1,0.7-3.8-0.4c-0.1-0.1-0.1-0.2-0.1-0.3c0-0.1,0-0.1,0-0.2c-0.1,0-0.2,0-0.3,0c0.1-0.1,0.2-0.2,0.4-0.3
			c0.2-0.7,0.8-1.4,1.1-1.8c1.2-1.7,1.9-3.5,2.1-5.4c-0.1,0.1-0.2,0.1-0.3,0.3c-2.6,4.1-5.1,6.5-9.8,7.9c-3.9,1.2-8.2,1.9-12.2,1.5
			c-5.4-0.6-15.1-4.8-18-10c0.2,0,0.4-0.1,0.6-0.1c1.6-0.4,3.1-0.8,4.5-1.2c2.9-0.8,7.2-4.1,5.5-7c1.3-0.1,2.5-0.3,3.6-0.5
			c3.8-0.7,11.8-3.1,11-8.4c3.7,0,7.4-0.6,10.4-2.9c3.8-3.1,2.3-8.9-0.1-12.3c-3.6-5.2-12.3-7-18.9-5c-0.6-1.9-2.5-4.3-3.9-4.1
			c-0.8,0.1-1.3,1.1-0.5,1.6c0.7,0.4,1.5,1.1,2,1.8c0.2,0.2,0.7,0.7,1,1.3c-1.9,0.8-3.6,1.9-4.8,3.4c-0.2,0.3-0.2,0.5,0,0.7
			c3.4-3.8,9.7-4.6,15-3.3c2.4,0.4,4.8,1.2,6.6,2.7c0.3,0.2,0.5,0.4,0.8,0.6c2.9,2.4,4.6,6.9,2.3,10.3c-2.5,3.6-7.6,4-11.6,3.9
			c-3.3-0.1-6.7-0.3-10-1.1c-3.6-0.2-7.2-0.8-9.9-3.4c-0.1-0.1-0.2-0.2-0.3-0.3c-2.4-1.5-4.4-3.8-6.3-5.9c-2.2-2.5-4.8-4.9-6.4-7.9
			c-0.2-0.4-0.4-0.8-0.6-1.2c-1.3-2.8-1.6-6.2-0.8-9c0.1-0.6,0.3-1.1,0.5-1.6c0.2-0.6,0.4-1,0.8-1.5c1-1.5,2.5-2.5,4.5-3.2
			c4-1.4,8.7-1.9,12.8-0.1c0.7,0.3,2,0.7,3.1,1.3c-2-1.6-3.9-3.1-6.4-3.7c-2.2-0.6-4.5-0.6-6.7-0.2c-3.7-1.4-7.4-2.4-11.4-3.1
			c-8.1-1.3-16-2.9-23.7-6.1c-6.7-2.8-13.7-7.9-16.5-15.1c-2.2-5.6,1.6-12.7,8-9.5c1.4,0.7,2.8,1.6,4.2,2.4c2.1,0.8,4.2,2.1,6.1,3.2
			c5.2,2.9,11,4.9,16.6,6.8c5.2,1.8,10.5,2.9,15.8,4.4c0.1,0,0.1,0,0.2,0.1c0.6,0.2,1.1,0.3,1.7,0.5c2.5,0.8,5,1.7,7.4,2.7
			c0.1,0,0.2,0.1,0.3,0.1c0.3,0.1,0.6,0.2,0.9,0.3c2.8,1.2,5.6,2.4,8.4,3.7c6.4,2.8,12.8,5.8,19.6,7.7c0.9,0.3,5.8,1,8.7,0.9
			c-0.6,0.7-1.2,1.3-2.1,1.9c-2.6,1.7-5.1,3-7.3,5.3c-2.5,2.7-4.1,7.5-3.2,11.1c0.1,0.2,0.2,0.4,0.3,0.5c-0.1-0.9,0-1.8,0.4-2.8
			c0.4-2.9,2.5-5.8,4.4-7.6c2.7-2.6,6.3-4,8.9-6.7c0.7-0.7,1.3-1.6,1.7-2.4c0.5-1.6,0.8-3.3,1.1-5c0-0.1-0.1-0.1-0.2-0.2
			c0.1-0.5,0.2-1,0.3-1.5c0.1-0.4,0.2-0.7,0.3-1.1c0.1-0.6,0.2-1.1,0.3-1.7c1-4.8,2.6-9.9,4.7-14.3c1.7-3.5,4.3-7,7.6-9.4
			c3.9-2.9,8.7-4.3,13.6-2.6c0,0,0,0,0,0c0.1,0,0.2,0.1,0.4,0.1c3.1,0.8,6.9,3.1,4.7,6.8c-2,3.2-4.7,5.8-6.7,9.1
			c-1.9,3.2-3.6,6.5-5,10c-2.8,7-4.2,14.5-5.1,22c-1,8.2-2,15.3-5.9,22.7c-3.8,7.2-9.6,12.9-16.4,16.9c-0.1,0.1,0,0.2,0.1,0.1
			c13.1-6,21.1-18.2,23.4-32.2c2.2,1,3.9,2,5.3,4.4c0.6,1,0.9,2,1.1,3.1c1.1,2.1,0.8,4.9,0.2,7.2C126.3,76.1,124.7,79.7,122.8,83z"
			/>
		<path class="st1" d="M232.7,72.9c5.5,0.9,13.4,5.4,8.1,11.9c-6.2,7.5-17.5,9.3-26.4,10.9c-10.7,1.9-21.7,2.9-32.6,3.2
			c-11.3,0.3-22.6-0.2-33.9-1.2c-5.8-0.5-11.5-1.3-17.2-1.9c-4.1-0.5-9.5-2.3-13.7-1.6c-0.1,0.1-0.2,0.3-0.3,0.4
			c-4.3,4.7-14,13.6-21.7,12.3c-0.9,0-1.7-0.1-2.6-0.3c-0.6-0.2-1.2-0.5-1.7-0.9c-4.7,2.3-10.8,3-15.2,2.9
			c-4.6-0.2-9.2-2.5-13.2-4.8c-2.9-1.7-6.1-3.7-7.2-7.1c-5,1.1-10.3,1.5-14.6-1.3c-5.9-3.8-9-12.9-11.5-19.2
			c-1.1-2.8-1.8-5.5-0.3-8.3c1.5-2.7,4.3-3.3,6.5-5.1l0.4,0.5c-1,1.2-2.3,2.2-3.5,3.1c-4.1,2.3-3.2,7.1-1.6,11.2
			c2.4,5.8,5.7,12.6,10.8,16.3c4.2,3,10.3,3,15.5,1.7l0.2,0.6c-0.2,0.1-0.4,0.1-0.6,0.1c2.9,5.2,12.7,9.5,18,10
			c4,0.4,8.4-0.3,12.2-1.5c4.7-1.4,7.2-3.8,9.8-7.9c0.1-0.1,0.2-0.2,0.3-0.3c-0.3,2-1,3.7-2.1,5.4c-0.3,0.4-0.9,1.1-1.1,1.8
			c-0.1,0.1-0.2,0.2-0.4,0.3c0.1,0,0.2,0,0.3,0c0,0.1,0,0.1,0,0.2c0,0.1,0.1,0.2,0.1,0.3c0.7,1,2.9,0.5,3.8,0.4
			c1.9-0.3,3.7-0.9,5.4-1.7c1.7-0.8,3.4-1.9,4.9-3.1c6.2-4.3,11.1-10.4,15-17.3c1.9-3.4,3.6-6.9,4.6-10.7c0.6-2.3,0.9-5.1-0.2-7.2
			c-0.2-1.1-0.5-2.1-1.1-3.1c-1.4-2.4-3-3.4-5.3-4.4c-2.3,14.1-10.3,26.2-23.4,32.2c-0.1,0-0.2-0.1-0.1-0.1
			c6.8-4,12.6-9.7,16.4-16.9c3.9-7.3,4.9-14.5,5.9-22.7c0.9-7.5,2.3-15,5.1-22c1.4-3.5,3.1-6.8,5-10c1.9-3.3,4.7-5.9,6.7-9.1
			c2.2-3.7-1.5-6-4.7-6.8c-0.1,0-0.2-0.1-0.4-0.1c0,0,0,0,0,0c-4.9-1.8-9.7-0.4-13.6,2.6l-0.5-0.7c3.3-2.5,7.2-4.2,11.1-4
			c3.7,0.1,8.2,1.3,10.4,4.7c1,1.6,0.4,3.8-0.6,5.2c-2.9,3.9-6,7.5-8.2,11.8c-5.3,9.9-7.5,20.5-8.4,31.7c-0.1,1-0.2,2-0.3,3
			c5.1,0.2,8.4,5.3,8.6,10.5c2.2,1.5,7,2.1,9.3,2.7c2.6,0.7,5.3,1.3,8,1.7c6.4,1.1,12.8,1.9,19.3,2.4c11.6,0.8,23,0.5,34.5,0.2
			C211.1,73.6,222.2,71.2,232.7,72.9z M235.7,86.4c2.6-2,7.1-6.6,2.6-9.7c-2.1-1.4-4.5-2.3-7-2.5c-5.6-0.6-11.2-0.4-16.8-0.1
			c-10.5,0.7-21,0.7-31.5,1.2c-10.1,0.5-20.2,0-30.2-1.6c-5.4-0.9-10.7-1.9-15.9-3.4c-2.2-0.7-5.3-1-7.3-2.4c-0.1,3.1-0.9,6.1-2.1,9
			c-0.6,1.5-1.2,2.9-1.7,4.1c-1.7,4-4.2,7.8-7,11.2c2.2,0,4.4,0.5,6.7,0.9c5.1,0.7,10.2,1.2,15.2,1.8c11,1.2,22.1,2.1,33.2,2
			c10.4,0,20.8-0.7,31.1-2.2c5.5-0.8,11-1.7,16.4-3C226.1,90.6,231.6,89.5,235.7,86.4z"/>
		<path class="st1" d="M92,63.8c2.4,3.4,3.9,9.2,0.1,12.3c-2.9,2.3-6.6,2.9-10.4,2.9c0.7,5.2-7.2,7.7-11,8.4
			c-1.1,0.2-2.4,0.4-3.6,0.5c1.7,2.8-2.5,6.2-5.5,7c-1.4,0.4-2.9,0.8-4.5,1.2L57,95.6c1.2-0.3,2.3-0.7,3.3-1.1
			c1.9-0.7,3.6-2,4.8-3.6c0.3-0.3,0.4-0.6,0.5-0.9c0.3-0.8,0-1.3-0.6-1.6c0-0.1-0.1-0.1-0.1-0.2c-0.1,0-0.2,0-0.2,0
			c-0.2,0-0.4-0.1-0.5-0.1c-0.1,0-0.2,0-0.3,0.1c-5.8,0.2-12-0.5-16.6-3.3c-3-1.8-5.6-5.3-7.6-9.2l0.6-0.3c1.5,3,3.7,5.8,6.3,7.5
			c3,1.9,7,2.7,10.7,2.8c3.5,0.5,7.1,0.6,10.3,0.3c5-0.4,11.1-1.3,12.5-6.9c-1.1,0-2.3-0.1-3.4-0.2c-5-0.3-12.9,0.5-16.8-3.4
			c-2.7-2.7-4.7-5.9-7.3-8.7c-2-2.2-4.1-4.5-5.6-7.1c-0.1-0.2-0.2-0.3-0.2-0.5l0.6-0.3c1.6,2.9,4.3,5.4,6.4,7.9
			c1.9,2.1,3.9,4.4,6.3,5.9c0.1,0.1,0.2,0.2,0.3,0.3c2.7,2.7,6.3,3.2,9.9,3.4c3.2,0.8,6.7,1,10,1.1c3.9,0.1,9.1-0.2,11.6-3.9
			c2.4-3.5,0.6-7.9-2.3-10.3c-0.2-0.2-0.5-0.4-0.8-0.6c-1.8-1.6-4.2-2.4-6.6-2.7c-5.3-1.3-11.6-0.5-15,3.3c-0.1-0.2-0.2-0.4,0-0.7
			c1.2-1.5,2.9-2.6,4.8-3.4c-0.3-0.5-0.8-1.1-1-1.3c-0.6-0.7-1.3-1.4-2-1.8c-0.8-0.5-0.3-1.4,0.5-1.6c1.4-0.2,3.3,2.2,3.9,4.1
			C79.7,56.8,88.4,58.7,92,63.8z"/>
		<path class="st1" d="M53.4,22.8c-0.1,0-0.1,0-0.2-0.1c-5.3-1.5-10.6-2.6-15.8-4.4c-5.6-1.9-11.4-4-16.6-6.8
			c-1.9-1.1-3.9-2.4-6.1-3.2c-1.4-0.9-2.7-1.7-4.2-2.4c-6.4-3.2-10.2,3.9-8,9.5c2.9,7.2,9.8,12.3,16.5,15.1
			c7.6,3.2,15.6,4.8,23.7,6.1c4,0.7,7.8,1.7,11.4,3.1c2.3-0.3,4.6-0.4,6.7,0.2c2.5,0.7,4.5,2.2,6.4,3.7c-1.2-0.6-2.4-1-3.1-1.3
			c-4-1.8-8.7-1.3-12.8,0.1c-1.9,0.7-3.5,1.8-4.5,3.2c-0.3,0.4-0.6,0.9-0.8,1.5c-0.2,0.5-0.4,1-0.5,1.6c-0.8,2.8-0.5,6.2,0.8,9
			c0.2,0.4,0.4,0.8,0.6,1.2l-0.6,0.3c-1.2-2.3-2.2-5.4-2.4-8.3c-6,2.3-8.1,7.9-6.9,13.8c0,2.3,0.4,4.6,1.2,6.9
			c0.4,1.2,1,2.5,1.6,3.8l-0.6,0.3c-2-4-3.3-8.3-3.7-11.9c0-0.2,0-0.4-0.1-0.6l-0.4-0.5c0.1-0.1,0.3-0.2,0.4-0.3
			c-0.3-5.9,2.6-11,8.5-12.5c-0.5-4,0.6-7.6,5.5-9.2c0.4-0.1,0.8-0.2,1.2-0.4c-1.4-0.5-2.8-0.9-4.2-1.2c-3.9-0.8-7.8-1.2-11.7-2
			c-8.2-1.7-16.3-4-23.5-8.7c-4.5-3-9.9-8-11.1-13.7C-0.6,10.3,0.2,3.9,5.6,3c2.8-0.4,5,0.2,7.4,1.8c3.8,2.5,7.6,4.9,11.7,6.9
			c2.1,1,4.1,2.1,6.3,3.1c0.3,0.1,0.7,0.1,1,0.2c1.7,0.8,3.4,1.5,5.1,2c1.6,0.5,3.3,0.8,4.9,1.1c2.6,0.6,5.1,1.1,7.7,1.6
			c5.6,1.2,11,2.9,16.2,5.2c6.4,2.8,12.7,5.8,19.1,8.4c0.3,0.1,0.6,0.2,0.9,0.4c1,0.4,2,0.7,3,1.1c1.2,0.5,2.6,1,3.9,1.4
			c3,0.9,6,1.3,8.7,0.7c0.3-0.4,0.5-0.9,0.7-1.4c0.3-1.1,0.5-2.3,0.8-3.4c1.8-8.1,4-16.8,9.1-23.4c1.3-1.7,3-3.4,4.9-4.8l0.5,0.7
			c-3.2,2.4-5.9,5.9-7.6,9.4c-2.1,4.4-3.8,9.5-4.7,14.3c-0.1,0.6-0.2,1.1-0.3,1.7c-0.1,0.3-0.2,0.7-0.3,1.1c-0.1,0.5-0.2,1-0.3,1.5
			c0.1,0,0.1,0.1,0.2,0.2c-0.3,1.7-0.6,3.4-1.1,5c-0.4,0.9-1,1.7-1.7,2.4c-2.6,2.7-6.2,4.1-8.9,6.7c-1.9,1.8-4,4.7-4.4,7.6
			c-0.3,0.9-0.5,1.9-0.4,2.8c-0.1-0.1-0.3-0.3-0.3-0.5c-0.9-3.6,0.7-8.4,3.2-11.1c2.2-2.3,4.7-3.6,7.3-5.3c0.9-0.6,1.6-1.2,2.1-1.9
			c-2.9,0.2-7.8-0.6-8.7-0.9C85,35.8,78.6,32.9,72.2,30c-2.8-1.2-5.6-2.5-8.4-3.7c-0.3-0.1-0.6-0.2-0.9-0.3c-0.1,0-0.2-0.1-0.3-0.1
			c-2.4-1-4.9-1.9-7.4-2.7C54.6,23.1,54,23,53.4,22.8z"/>
	</g>
	<path class="st2" d="M235.7,86.4c2.6-2,7.1-6.6,2.6-9.7c-2.1-1.4-4.5-2.3-7-2.5c-5.6-0.6-11.2-0.4-16.8-0.1
		c-10.5,0.7-21,0.7-31.5,1.2c-10.1,0.5-20.2,0-30.2-1.6c-5.4-0.9-10.7-1.9-15.9-3.4c-2.2-0.7-5.3-1-7.3-2.4c-0.1,3.1-0.9,6.1-2.1,9
		c-0.6,1.5-1.2,2.9-1.7,4.1c-1.7,4-4.2,7.8-7,11.2c2.2,0,4.4,0.5,6.7,0.9c5.1,0.7,10.2,1.2,15.2,1.8c11,1.2,22.1,2.1,33.2,2
		c10.4,0,20.8-0.7,31.1-2.2c5.5-0.8,11-1.7,16.4-3C226.1,90.6,231.6,89.5,235.7,86.4z"/>
</g>
</svg>
