<?xml version="1.0" encoding="utf-8"?>
<!-- Generator: Adobe Illustrator 25.2.0, SVG Export Plug-In . SVG Version: 6.00 Build 0)  -->
<svg version="1.1" id="Layer_1" xmlns="http://www.w3.org/2000/svg" xmlns:xlink="http://www.w3.org/1999/xlink" x="0px" y="0px"
	 viewBox="0 0 272.3 124.5" style="enable-background:new 0 0 272.3 124.5;" xml:space="preserve">
<style type="text/css">
	.st0{fill:#FF7B22;}
	.st1{fill:#16211F;}
	.st2{fill:#A1D2FF;}
</style>
<g>
	<g>
		<path class="st0" d="M154.5,102.8c-3-0.6-6.1,3-6.9,5.4c-0.9,2.7,1.7,5.3,3.5,6.8c3.9,3.3,9.3,5.4,14.3,6.6
			c6.2,1.5,12.9,1.4,19.1-0.3c3.3-0.9,6.4-2.6,8.8-5.1c1.2-1.3,4.2-5.6,4.2-7.8c-0.7,0.2-1.3,0.3-2,0.5c-5.5,1.2-10.9,2.6-16.5,3.2
			c-8.1,0.9-14.9-3.3-21.1-7.7c-0.6-0.5-1.5-1.1-2.4-1.9C155,102.8,154.8,102.9,154.5,102.8z"/>
		<path class="st0" d="M153.4,94.2c0,0.1,0,0.1-0.1,0.2c-1.9,3.7,4.6,7.7,7.1,9.6c5.9,4.5,12.3,7.2,19.9,6.3
			c6.5-0.7,13.7-2.3,19.9-4.4c3.9-1.3,6.6-3.3,7.7-7.2c0.2-0.6,1.4-8.3,0.5-8.3c-0.1,0-0.2,0-0.3-0.1c-0.4,0.3-0.9,0.5-1.3,0.8
			c-3.7,2-7.7,3.1-11.6,4.4c-5,1.8-10,4-15.4,4.5C174.6,100.4,161.8,98.6,153.4,94.2z"/>
		<path class="st0" d="M192.8,62c-0.1,0-0.2,0-0.3,0c0,1.1,0,2.2,0,3.3c-0.1,2.7-1.4,5.2-1.7,7.9c2.2-0.7,4.1-1,5-0.7
			c0.1,0,0.1,0.1,0.2,0.1c-3.3,0.2-6.6,1.5-9.1,3.7c-2.6,1-4.6,2.2-4.1,3.6c1.2,1,2.3,2,3.4,3.1c-0.7-0.4-1.4-0.8-2.1-1.1
			c-2.9-1.5-5.8-3.3-9-4.1c-1.2-0.5-2.4-1-3.7-1.4c-7.3-2.2-15.4-2.8-21.6,2.7c-7.9,6.9,4.5,13.8,10,15.7c6.9,2.5,15.5,4.3,22.8,3.2
			c3.6-0.5,7.4-2.3,10.8-3.6c3.2-1.1,6.5-2.1,9.6-3.4c7.5-3,14.6-9.1,10.7-17.5c-2-4.4-6.3-6.9-10.8-8.4c-2.1-0.7-4.2-1.2-6.2-1.8
			C196.1,62.9,193.7,61.8,192.8,62z"/>
		<path class="st0" d="M186.4,42.3l0.4,1.6c0.1,0,0.2,0,0.3,0.1c3,3.6,4.4,8.7,5,13.2c0.2,1.2,0.3,2.4,0.3,3.6
			c0.1,0,0.1-0.1,0.2-0.1c0.2-0.1,0.4-0.1,0.6-0.1c0.2-0.2,0.5-0.4,0.9-0.4c3.6,0.5,7.2-0.4,10.8-0.6c4.4-0.2,8.8-0.5,13.2-0.9
			c7.7-0.7,15.3-2,22.9-3.5c7-1.5,13.9-3.8,19.6-8c5.3-3.8,11.8-11.8,8.6-18.5c-2.3-4.8-8.3-2.3-12.1-0.8c-4,1.6-8,3.3-12.1,4.8
			c-7.9,2.9-16,5-24.3,6.7c-8,1.6-16.2,2.6-24.3,2.8C195.1,42.3,189.7,42.9,186.4,42.3z"/>
		<path class="st0" d="M185.4,42c-0.1,0-0.1,0.1-0.2,0.1c-1.9,1.1-1,3.6-0.8,5c0.9,4.7,1.7,8-0.2,12.7c-2.7,6.5-8.9,10.6-15.9,11.2
			c-0.1,0-0.1,0-0.2,0l0,2.1c3,0.7,6.1,1.9,8.8,3c1.9,0.8,3.5,1.8,5,3c0.2-2.1,4.3-4.5,8.2-5.8c0.1-1.6,0.4-2.9,0.8-4.5
			c1-3.3,0.7-6.6,0.4-9.9c-0.6-5.4-2.7-9.4-5.1-14.1c-0.2-0.4,0.2-0.9,0.6-0.9l-0.4-1.6C186,42.2,185.7,42.1,185.4,42z"/>
		<path class="st0" d="M202.1,4.1c-2.3-2.8-4.7-0.1-6.2,1.6c-2.4,2.8-4,6.1-6.4,9c-2.3,2.8-4.8,5.2-7.7,7.3
			c-6.8,5.1-14.5,7.1-22.8,8.7c-8.9,1.7-17.2,6.4-22.3,14c-4.6,6.9-6.3,16.8-2,24c0.1,0.1-0.2,0.3-0.3,0.2c-3-4.7-4-10-3.4-15.3
			c0,0-0.1,0-0.1-0.1c-0.4-0.3-1-0.3-1.7,0c-2.3,0.8-5.9,3.7-6.6,4.4c-3.2,3.4-4.6,8.1-5.1,12.5c-0.5,4.7,0.1,9.6,2,13.9
			c1.7,3.9,5.2,8.1,9.8,8.1c-1.2-6.9,3.5-12.7,7.1-18.5c0.7-0.8,1.4-1.4,2.2-1.9c0,0.1,0,0.2,0,0.3c-2.7,6.9-9.4,12.9-8,20.8
			c0.1,0.5,0.2,1,0.4,1.5c1.4,3.8,5.5,6.1,9.1,8.2c2,1.1,4.6,1.3,6.7,2.3c1.6-2.3,4.1-3.9,6.8-3.8c-2.2-2.3-3.9-5.2-1.5-7.5
			c0,0,0.1,0,0.1-0.1c-5.7-3.3-9-8-5.4-14.1c3.3-5.7,12.4-7.3,18.3-6.8c1,0.1,2,0.3,3,0.5l0-2.1c-0.2-0.1-0.1-0.5,0.2-0.6
			c8.6-1.9,15.6-8.4,14.7-17.6c-0.4-4.4-3-9.1,0.7-12.1c0-0.2,0.1-0.4,0.3-0.6c0.1-0.1,0.2-0.1,0.2-0.2c0.3-0.2,0.5-0.1,0.6,0
			c0.1-0.1,0.3-0.2,0.4-0.2c3-1.5,5.8-2.7,8.5-4.7c4.2-3.2,7-7.3,9-12c1.7-4.1,2.9-8.5,2.2-13C204.6,7.9,203.6,5.8,202.1,4.1z"/>
		<path class="st1" d="M207.3,15.5c-1.8,9.3-6.5,17.1-14.5,22.7c-1.2,0.9-2.4,1.5-3.8,2.1c1.9,0.1,3.9,0.4,4.6,0.4
			c4.7,0.1,9.4-0.3,14.1-0.8c10.2-1.1,20.2-3.2,30-6.2c4.7-1.4,9.1-3.3,13.6-5.1c3.6-1.5,8.1-4.5,12.1-4.8c5.8-0.4,9.2,3.9,8.8,9.2
			c-0.4,5.6-4.8,10.9-9.1,14.4c-5.8,4.7-12.6,7.3-19.8,9.1c-7.8,1.9-15.9,3.1-23.9,4c-4.9,0.6-9.8,0.9-14.7,1.1
			c-1.8,0.1-3.7,0.4-5.5,0.6c1.8,0.5,3.6,1,5.5,1.6c5.8,1.8,10.3,6.1,11.9,11.9c1.6,5.8-2.3,10.6-7,13.8c0,0,0,0,0.1,0.1
			c1.7,4,0.4,12.4-3.5,15.1c-2.4,1.7-5,2.8-7.8,3.6c0.4,1.9-1.6,4.9-2.3,6.3c-1.6,3.3-4.8,5.7-8.1,7.2c-8.4,3.7-18.3,3.6-26.9,0.8
			c-5.3-1.7-14.1-4.9-15.8-10.9c-0.5-1.7-0.1-3.7,0.7-5.5c-7.5,0.2-13.6-4.6-16.1-11.3l1-0.4c1.4,3.8,5.5,6.1,9.1,8.2
			c2,1.1,4.6,1.3,6.7,2.3c1.6-2.3,4.1-3.9,6.8-3.8c-2.2-2.3-3.9-5.2-1.5-7.5c0,0,0.1,0,0.1-0.1c-5.7-3.3-9-8-5.4-14.1
			c3.3-5.7,12.4-7.3,18.3-6.8c1,0.1,2,0.3,3,0.5c3,0.7,6.1,1.9,8.8,3c1.9,0.8,3.5,1.8,5,3c0.2-2.1,4.3-4.5,8.2-5.8
			c0.1-1.6,0.4-2.9,0.8-4.5c1-3.3,0.7-6.6,0.4-9.9c-0.6-5.4-2.7-9.4-5.1-14.1c-0.2-0.4,0.2-0.9,0.6-0.9c0.1,0,0.2,0,0.3,0.1
			c3,3.6,4.4,8.7,5,13.2c0.2,1.2,0.3,2.4,0.3,3.6c0.1,0,0.1-0.1,0.2-0.1c0.2-0.1,0.4-0.1,0.6-0.1c0.2-0.2,0.5-0.4,0.9-0.4
			c3.6,0.5,7.2-0.4,10.8-0.6c4.4-0.2,8.8-0.5,13.2-0.9c7.7-0.7,15.3-2,22.9-3.5c7-1.5,13.9-3.8,19.6-8c5.3-3.8,11.8-11.8,8.6-18.5
			c-2.3-4.8-8.3-2.3-12.1-0.8c-4,1.6-8,3.3-12.1,4.8c-7.9,2.9-16,5-24.3,6.7c-8,1.6-16.2,2.6-24.3,2.8c-1.4,0-6.7,0.6-10.1,0
			c-0.3-0.1-0.7-0.1-1-0.2c-0.1,0-0.1,0.1-0.2,0.1c-1.9,1.1-1,3.6-0.8,5c0.9,4.7,1.7,8-0.2,12.7c-2.7,6.5-8.9,10.6-15.9,11.2
			c-0.1,0-0.1,0-0.2,0c-0.2-0.1-0.1-0.5,0.2-0.6c8.6-1.9,15.6-8.4,14.7-17.6c-0.4-4.4-3-9.1,0.7-12.1c0-0.2,0.1-0.4,0.3-0.6
			c0.1-0.1,0.2-0.1,0.2-0.2c0.3-0.2,0.5-0.1,0.6,0c0.1-0.1,0.3-0.2,0.4-0.2c3-1.5,5.8-2.7,8.5-4.7c4.2-3.2,7-7.3,9-12
			c1.7-4.1,2.9-8.5,2.2-13c-0.4-2.2-1.4-4.3-2.8-6c-2.3-2.8-4.7-0.1-6.2,1.6c-2.4,2.8-4,6.1-6.4,9c-2.3,2.8-4.8,5.2-7.7,7.3
			c-6.8,5.1-14.5,7.1-22.8,8.7c-8.9,1.7-17.2,6.4-22.3,14c-4.6,6.9-6.3,16.8-2,24c0.1,0.1-0.2,0.3-0.3,0.2c-3-4.7-4-10-3.4-15.3
			c0,0-0.1,0-0.1-0.1c-0.4-0.3-1-0.3-1.7,0l-0.4-1c0.9-0.3,1.7-0.4,2.4-0.2c0.3-1.8,0.7-3.6,1.3-5.3c2.7-7.9,10-13.5,17.6-16.7
			c4.6-1.9,9.9-2.2,14.8-3c6.2-1,11.9-3.8,17-7.4c4.8-3.5,7.6-8.4,10.7-13.2c1.5-2.4,3.8-6.2,6.9-6.5
			C206.6-0.7,208.2,11.1,207.3,15.5z M192.5,65.2c-0.1,2.7-1.4,5.2-1.7,7.9c2.2-0.7,4.1-1,5-0.7c0.1,0,0.1,0.1,0.2,0.1
			c-3.3,0.2-6.6,1.5-9.1,3.7c-2.6,1-4.6,2.2-4.1,3.6c1.2,1,2.3,2,3.4,3.1c-0.7-0.4-1.4-0.8-2.1-1.1c-2.9-1.5-5.8-3.3-9-4.1
			c-1.2-0.5-2.4-1-3.7-1.4c-7.3-2.2-15.4-2.8-21.6,2.7c-7.9,6.9,4.5,13.8,10,15.7c6.9,2.5,15.5,4.3,22.8,3.2
			c3.6-0.5,7.4-2.3,10.8-3.6c3.2-1.1,6.5-2.1,9.6-3.4c7.5-3,14.6-9.1,10.7-17.5c-2-4.4-6.3-6.9-10.8-8.4c-2.1-0.7-4.2-1.2-6.2-1.8
			c-0.8-0.2-3.2-1.4-4.1-1.2c-0.1,0-0.2,0-0.3,0C192.6,63.1,192.6,64.2,192.5,65.2z M160.4,103.9c5.9,4.5,12.3,7.2,19.9,6.3
			c6.5-0.7,13.7-2.3,19.9-4.4c3.9-1.3,6.6-3.3,7.7-7.2c0.2-0.6,1.4-8.3,0.5-8.3c-0.1,0-0.2,0-0.3-0.1c-0.4,0.3-0.9,0.5-1.3,0.8
			c-3.7,2-7.7,3.1-11.6,4.4c-5,1.8-10,4-15.4,4.5c-5.4,0.5-18.1-1.3-26.6-5.8c0,0.1,0,0.1-0.1,0.2C151.5,98.1,157.9,102,160.4,103.9
			z M151,115.1c3.9,3.3,9.3,5.4,14.3,6.6c6.2,1.5,12.9,1.4,19.1-0.3c3.3-0.9,6.4-2.6,8.8-5.1c1.2-1.3,4.2-5.6,4.2-7.8
			c-0.7,0.2-1.3,0.3-2,0.5c-5.5,1.2-10.9,2.6-16.5,3.2c-8.1,0.9-14.9-3.3-21.1-7.7c-0.6-0.5-1.5-1.1-2.4-1.9
			c-0.2,0.2-0.4,0.3-0.7,0.3c-3-0.6-6.1,3-6.9,5.4C146.6,111,149.2,113.5,151,115.1z"/>
		<path class="st1" d="M24.8,70.5C30.9,71,37,71.6,43,72c24.6,1.8,49.1,0.4,73.4-4.6c1.1-4.4,3.4-9.2,7.1-11.9
			c1-0.7,3.4-2.4,5.4-3.1l0.4,1c-2.3,0.8-5.9,3.7-6.6,4.4c-3.2,3.4-4.6,8.1-5.1,12.5c-0.5,4.7,0.1,9.6,2,13.9
			c1.7,3.9,5.2,8.1,9.8,8.1c-1.2-6.9,3.5-12.7,7.1-18.5c0.7-0.8,1.4-1.4,2.2-1.9c0,0.1,0,0.2,0,0.3c-2.7,6.9-9.4,12.9-8,20.8
			c0.1,0.5,0.2,1,0.4,1.5l-1,0.4c-0.1-0.2-0.1-0.4-0.2-0.5c-0.1-0.3-0.2-0.6-0.3-0.8c-5.1,1.2-7.8-2.1-10.8-5.8l0,0
			c-1.7,0.1-3.4,0.6-5.1,1c-3,0.6-6.1,0.7-9.1,1c-6.1,0.6-12.1,1.1-18.2,1.6c-11.5,0.9-23.3,0.6-34.9,0.1c-9.5-0.4-19.1-1.2-28.4-3
			c-7.1-1.4-17.6-3.6-22-9.7c-4.7-6.6,5.1-9.2,10.2-9.4C15.9,69.1,20.4,70.1,24.8,70.5z M6.8,79.9c6.8,5.3,17.1,7,25.5,8.2
			c9.4,1.3,19,1.7,28.5,1.9c10.6,0.2,21.2,0,31.7-0.9c5-0.4,10.1-0.8,15.1-1.3c3.3-0.3,6.9-1.3,10.4-1.2c-3.1-4.9-3.2-11.6-2.1-17.1
			C101.3,72,86.6,74,71.9,74.6c-6,1.3-12,2-18.1,2.7c-2.2,0.3-4.4,0.5-6.6,0.8c-2.4-0.1-4.8-0.2-7.3-0.3c4.6-0.3,9.3-1,13.9-1.7
			c3.6-0.5,7.3-0.7,10.9-1.4c-2.8,0-5.7,0-8.5-0.1c-10.7-0.4-21.3-1.4-31.9-2.3c-4.3-0.4-8.6-1.1-12.9-1c-2.5,0-5,0.7-7.2,2
			C0.6,75.4,5.3,78.8,6.8,79.9z"/>
	</g>
	<path class="st2" d="M6.8,79.9c6.8,5.3,17.1,7,25.5,8.2c9.4,1.3,19,1.7,28.5,1.9c10.6,0.2,21.2,0,31.7-0.9c5-0.4,10.1-0.8,15.1-1.3
		c3.3-0.3,6.9-1.3,10.4-1.2c-3.1-4.9-3.2-11.6-2.1-17.1C101.3,72,86.6,74,71.9,74.6c-6,1.3-12,2-18.1,2.7c-2.2,0.3-4.4,0.5-6.6,0.8
		c-2.4-0.1-4.8-0.2-7.3-0.3c4.6-0.3,9.3-1,13.9-1.7c3.6-0.5,7.3-0.7,10.9-1.4c-2.8,0-5.7,0-8.5-0.1c-10.7-0.4-21.3-1.4-31.9-2.3
		c-4.3-0.4-8.6-1.1-12.9-1c-2.5,0-5,0.7-7.2,2C0.6,75.4,5.3,78.8,6.8,79.9z"/>
</g>
</svg>
