<?xml version="1.0" encoding="utf-8"?>
<!-- Generator: Adobe Illustrator 25.2.0, SVG Export Plug-In . SVG Version: 6.00 Build 0)  -->
<svg version="1.1" id="Layer_1" xmlns="http://www.w3.org/2000/svg" xmlns:xlink="http://www.w3.org/1999/xlink" x="0px" y="0px"
	 viewBox="0 0 553.5 566.5" style="enable-background:new 0 0 553.5 566.5;" xml:space="preserve">
<g>
	<path d="M535.3,126.4c-1.8-0.8-3.9-1.4-5.5-2.6c0,0.2,0.1,0.5,0.2,0.7c0.7,4.5,0.7,10.4-0.3,16.1c-1,5.5-2.9,10.7-6,14.1
		c-4.7,5.1-12.1,8.4-19.3,10.2c-0.1-0.1-0.3-0.1-0.4,0c-0.2,0.1-0.5,0.2-0.7,0.3c-0.1,0-0.2,0.1-0.3,0.1c0,0.1-0.1,0.2-0.1,0.2
		c-0.7,0.6-0.9,1.4-0.2,2.2c0.2,0.4,0.5,0.7,1,0.9c2.1,1.6,4.7,2.5,7.3,2.8c1.4,0.1,3,0.2,4.5,0.1c6.8-0.3,14.3-2.5,18.5-7.8
		c5-6.4,6.7-16.1,7.5-24.1C541.9,134,541.2,127.7,535.3,126.4z"/>
	<path d="M514.8,123.4c-0.9,3.8-2.6,7.4-4.3,10.9c-2.1,4.4-3.5,9.1-5.8,13.4c-3.4,6.2-13.6,8.1-19.6,10.3c-1.3,0.5-2.7,1-4.1,1.5
		c3.7,6.4,11.6,5.3,18,4c4-0.8,8.5-2.2,12.6-4.1c4.6-1.4,9.2-3.8,12.2-7.3c2.7-3.2,4.3-7.4,5.1-11.6c0.3-1.8,0.5-3.5,0.6-5.2
		c0.2-3.1-0.2-6.1-1-9c-0.7-7.8-5.3-13.9-13.6-14.6c0.9,3.7,0.8,7.8,0.1,11.1C514.9,123,514.9,123.2,514.8,123.4z"/>
	<path d="M540.1,43.5c-1.5,1.4-2.9,2.9-4.3,4.5c-2.4,1.7-4.4,4.2-6.4,6.2c-5.4,5.5-11.8,10.1-18.1,14.5c-5.8,4.1-12,7.5-18,11.2
		c-0.1,0-0.2,0.1-0.2,0.1c-0.7,0.4-1.3,0.8-2,1.2c-2.9,1.9-5.6,3.9-8.2,6.1c-0.1,0.1-0.2,0.1-0.3,0.2c-0.3,0.2-0.7,0.4-1,0.7
		c-3.1,2.5-6,5-9.1,7.6c-6.9,5.9-13.8,11.8-21.5,16.6c-1,0.7-6.8,3.4-10.5,4.2c0.9,0.6,2,1.2,3.3,1.6c3.9,1.2,7.5,1.8,11,3.9
		c4,2.4,7.8,7.7,8,12.6c0,0.3-0.1,0.6-0.2,0.7c-0.1-1.1-0.7-2.3-1.5-3.3c-1.6-3.4-5.3-6.3-8.2-7.8c-4.3-2.2-9.3-2.6-13.4-5.1
		c-1.1-0.7-2.1-1.5-3-2.4c-1.2-1.8-2.2-3.8-3.2-5.8c0-0.1,0.1-0.2,0.2-0.3c-0.3-0.6-0.6-1.2-0.9-1.8c-0.2-0.4-0.5-0.8-0.7-1.2
		c-0.3-0.7-0.6-1.3-1-2c-2.9-5.6-6.9-11.3-11.1-15.9c-3.4-3.8-7.9-7.1-12.8-8.9c-5.9-2.2-12.3-2.2-17.8,1.8c0,0,0,0,0,0
		c-0.1,0.1-0.3,0.2-0.4,0.2c-3.6,2.1-7.5,6.3-3.3,10.1c3.6,3.3,8,5.5,11.6,8.9c3.5,3.3,6.8,6.8,9.8,10.6c6,7.6,10.5,16.4,14.3,25.3
		c4.2,9.8,8,18.3,15.5,26c7.3,7.5,16.5,12.4,26.5,14.9c0.2,0,0.1,0.2,0,0.2c-18.4-2.7-32.7-14.8-40.7-31.4c-2.4,2.1-4.1,3.9-4.9,7.4
		c-0.3,1.4-0.4,2.8-0.2,4.2c-0.6,3.1,0.8,6.4,2.4,9c2.6,4.3,6,8.1,9.6,11.6c7.4,7.1,15.6,12.9,24.8,15.9c2.3,0.9,4.7,1.6,7.2,2
		c2.4,0.4,4.9,0.6,7.3,0.2c1.2-0.2,4.1-0.3,4.6-1.8c0-0.2,0-0.3,0-0.5c0-0.1,0-0.1,0-0.2c0.1-0.1,0.2-0.1,0.3-0.2
		c-0.2-0.1-0.4-0.1-0.6-0.2c-0.5-0.7-1.5-1.4-2-1.8c-2.1-1.7-3.6-3.6-4.6-6c0.2,0,0.3,0.1,0.5,0.2c4.7,4.2,8.7,6.2,15,6.2
		c5.2,0,10.8-0.6,15.7-2.6c6.4-2.7,17-11.5,18.7-19c-0.2,0-0.5,0-0.7,0c-2.1,0.1-4.1,0.1-6,0.1c-3.9,0.1-10.4-2.5-9.3-6.7
		c-1.6,0.3-3.2,0.5-4.6,0.7c-5,0.5-15.7,0.4-16.7-6.4c-4.6,1.3-9.4,2-13.9,0.1c-5.9-2.4-6.1-10.2-4.4-15.3
		c2.6-7.7,12.7-13.2,21.5-13.1c0-2.5,1.5-6.3,3.3-6.5c1-0.1,2,0.9,1.1,1.8c-0.7,0.7-1.4,1.9-1.9,2.9c-0.1,0.3-0.5,1.1-0.8,1.9
		c2.6,0.3,5.1,1.1,7.1,2.5c0.4,0.2,0.4,0.6,0.3,0.8c-5.6-3.4-13.7-2.2-19.8,1.4c-2.9,1.3-5.6,3.2-7.2,5.8c-0.3,0.3-0.5,0.7-0.7,1
		c-2.7,4.1-3.2,10.2,0.9,13.6c4.4,3.6,10.9,2.1,15.8,0.6c4-1.3,8.2-2.8,11.9-5c4.4-1.6,8.7-3.6,11-7.9c0.1-0.2,0.2-0.4,0.3-0.5
		c2.5-2.7,4.1-6.3,5.6-9.6c1.8-3.9,4.1-7.9,5.1-12.1c0.1-0.6,0.2-1.1,0.3-1.7c0.5-3.9-0.3-8.2-2.3-11.4c-0.3-0.7-0.7-1.3-1.2-1.8
		c-0.4-0.6-0.9-1.1-1.5-1.5c-1.8-1.4-4.1-2.2-6.7-2.4c-5.5-0.3-11.5,0.8-15.9,4.5c-0.8,0.7-2.2,1.6-3.4,2.8c1.9-2.7,3.7-5.2,6.6-7
		c2.5-1.5,5.3-2.3,8.3-2.7c4-3,8.3-5.7,13.1-7.9c9.5-4.6,18.8-9.4,27.1-16.2c7.3-6,14-14.8,15-24.7
		C554.2,44.6,546.9,37.2,540.1,43.5z"/>
	<path d="M172.7,104.4c-5.5-36.9,7.2-75.7,33.7-102.1c0.5-0.5,0.5-1.4,0-1.9c-0.5-0.5-1.4-0.5-1.9,0C179.7,25,166.7,60.3,168.9,95
		C170.5,98.1,171.8,101.2,172.7,104.4z"/>
	<path d="M118.6,96.2c14.5,8.2,36,12.9,51.9,11.5c-0.2-0.9-0.3-1.9-0.5-2.9c-6.9-24-36.2-46.1-45.4-52.6
		c-17.8-12.5-39.2-22.2-65.3-29.7c6.9,8.5,12.8,18,18.5,27.2C89.5,68.4,100.4,86,118.6,96.2z"/>
	<path d="M411.5,201.1c6.1-2.5,12.2-5.1,18.2-7.8c2.7-1.2,5.2-2.7,8-3.5c-4.7-3.2-9.2-7.1-12.7-11.4c-1.1-1.4-2.4-2.9-3.6-4.5
		c-2.5-3.1-4.6-6.6-5.9-10.4c-2,2.5-5.8,4.1-8.2,5.7c-5.9,3.9-12.1,7-18.5,10.1c-2.2,1.1-4.4,2.1-6.7,3c-0.9,0.4-1.8,0.8-2.7,1.1
		c-3.2,1.3-6.5,2.5-9.8,3.7c-0.7,0.3-1.5,0.5-2.2,0.8c-0.7,0.2-1.5,0.5-2.2,0.7c-0.7,0.2-1.4,0.4-2.1,0.7c-1.1,0.4-2.3,0.7-3.4,1
		c-0.4,0.1-0.7,0.2-1.1,0.3c-1.5,0.4-3,0.8-4.4,1.2c2.8,5.3,5.4,10.8,7.6,16.4c1.2,3,2.3,6.1,3.3,9.2c0.1,0,0.1,0,0.2-0.1
		c0.8-0.2,1.5-0.4,2.3-0.6c1.2-0.3,2.4-0.7,3.6-1C384.9,211.8,398.3,206.6,411.5,201.1z"/>
	<polygon points="221.3,67.6 244.4,69.8 242.2,93.9 248.1,94.4 252.8,43.5 246.9,43 245,63.9 221.8,61.8 223.8,40.9 217.8,40.3 
		213.1,91.2 219.1,91.8 	"/>
	<path d="M267.4,100.8l7.2,2.5l8-0.9l5.1-3.9l3.4-5.7l2.7-8l0.7-6.6l-1.7-6.2l-5.7-5.7l-7.2-2.5l-8,1l-5.1,3.9l-3.4,5.7l-2.7,8
		L260,89l1.7,6.2L267.4,100.8z M266.6,83.6l2.3-6.8l2.4-4.1l3-2.3l4.8-0.7l5.3,1.8l3.2,3.4l1.1,3.7l-0.6,4.7l-2.3,6.8l-2.4,4.3
		l-3.1,2.4l-4.7,0.6l-5.3-1.8l-3.3-3.3l-1-3.8L266.6,83.6z"/>
	<polygon points="298.4,112.1 313.4,90.6 316.9,89.3 323,89.6 326.8,92.2 329,95.4 328.8,98.9 312.7,122 317.6,125.4 332.4,104.2 
		336.2,102.8 342.2,102.9 346,105.6 348.3,108.7 348.2,112 331.8,135.4 336.7,138.8 354.4,113.5 354.1,106.2 350.3,101.4 
		344.9,97.7 339.2,97 335.1,97.4 335,92.8 331.2,88.1 325.8,84.3 320.3,83.8 317.9,84.1 320.1,81 315.2,77.6 293.5,108.7 	"/>
	<path d="M348.8,139.5l-2.1,7.9l1.8,7.8l3.7,4.6l5.4,4.1l5.3,1.7l1.7-5.4l-4.2-1.4l-4-3l-2.7-3.4l-1.1-4.8l1.5-5.6l1.9-2.7l0.6-0.5
		l17.4,21.6l5.9-4.7l2.7-4.3l2.1-7.9l-1.9-7.8l-4-5l-7.2-3.4l-8.2,0.3l-5,2.1l-6.7,5.4L348.8,139.5z M361.8,134.8l3-1.3l5.7-0.2
		l4.4,2l2.8,3.5l1,4.9l-1.5,5.6l-1.5,2.4l-0.7,0.6l-13.6-17L361.8,134.8z"/>
	<polygon points="438.6,256.9 440.7,249.1 439.9,241.3 435.8,234.1 430.5,229.7 423.8,227.2 417.4,226.5 406.9,227.6 400.9,229.6 
		394.9,233.4 390.5,238.7 387.9,246.7 388.8,254.6 392.5,261.7 395.3,264.7 398.9,267.1 402.5,262.5 399.4,260.3 397.4,258.3 
		394.5,253.1 393.9,247.1 395.8,241.7 398.9,238 403.3,235.1 408,233.5 417.6,232.5 422.5,233 427.5,235 431.3,238 434.2,242.9 
		434.8,248.9 433.1,254.5 431.5,256.9 429,259.7 433.4,263.5 436.4,260.3 	"/>
	<polygon points="434.2,286.3 443,286.9 443.6,278.4 434.8,277.8 	"/>
	
		<rect x="405.2" y="261.3" transform="matrix(6.855508e-02 -0.9976 0.9976 6.855508e-02 100.6118 668.2274)" width="6" height="37.9"/>
	<polygon points="387,298.7 412.5,304.7 415,307.5 417,313.3 416,317.8 413.8,321.6 410.7,322.7 382.9,316.2 381.5,322 411.5,329.1 
		418.3,326.1 421.4,320.3 422.9,313.9 421.3,308.6 420.2,306.5 423.9,307.4 425.2,301.6 388.4,292.9 	"/>
	<path d="M400.1,338.9l-7.7-3.7l-5.3-0.9l-8.1,1.5l-6.2,5l-2.6,5.4l-1.4,6.7l0.7,5.5l5.6-0.8l-0.5-4.4l1-4.9l1.9-3.9l3.9-3l5.7-1.1
		l3.2,0.5l0.7,0.3l-12.1,25l6.8,3.3l5.1,0.6l8.1-1.4l6.3-5l2.8-5.7l0-8l-3.8-7.3L400.1,338.9z M400.3,360.1l-4,2.9l-5.7,1.1
		l-2.9-0.4l-0.8-0.4l9.5-19.6l0.6,0.3l2.5,2.2l2.7,5.1l0.1,4.9L400.3,360.1z"/>
	<polygon points="357.8,369.9 377.1,387.5 378,391.1 376.9,397.2 373.8,400.6 370.4,402.4 367,401.7 346.1,382.8 342.1,387.2 
		361.2,404.6 362.2,408.5 361.2,414.5 358.1,417.9 354.8,419.8 351.5,419.2 330.4,400 326.3,404.5 349.2,425.2 356.5,425.9 
		361.7,422.7 366.1,417.9 367.5,412.3 367.6,408.1 372.2,408.6 377.4,405.5 381.8,400.6 383,395.2 383,392.8 385.8,395.3 
		389.8,390.9 361.8,365.5 	"/>
	<path d="M330.3,436.8l-1.1,2.4l-2.1,2.5l-4.4,2.7l-3.4,1.1l-3.6-0.1l-1.8-1.4l-2.8-4.7l2.1,0.1l4.9-1.1l3.9-2.4l5.1-5.2l1.8-7.3
		l-1.7-4.7l-2.2-3.6l-6.5-2.9l-4,0.1l-5,1.3l-3.8,2.3l-3.9,6.3l-0.4,2.5l-5.6-2.6l-2.3,5.4l4.5,2l11.3,18.6l4.2,3.2l6.4,0.3l5.1-1.6
		l5.7-3.5l3.2-3.6l1.8-3.7l0.7-2.6l-5.7-1.5L330.3,436.8z M307.5,433.4l-1.4-2.3l-0.5-2.3l0.9-4.2l3.6-4.5l2-1.2l3.4-0.9h1.9
		l3.5,1.6l1,1.6l0.8,2.5l-0.9,3.9l-3.4,3.6l-2.8,1.7l-3.5,1l-2.5,0.2L307.5,433.4z"/>
	<path d="M58.8,303.5c0.4-0.4,0.7-0.8,1.1-1.1c0.5-0.5,1-1,1.6-1.5c0.4-0.3,0.7-0.7,1.1-1c3.8-3.4,7.6-6.3,11.5-8.5
		c0.2-0.1,0.5-0.3,0.7-0.4c0.4-0.2,0.8-0.4,1.2-0.6c0.4-0.2,0.8-0.4,1.2-0.6c1-0.5,2-1,3-1.4c0.4-0.2,0.7-0.3,1.1-0.4
		c0.3-0.1,0.6-0.2,0.9-0.3c0.3-0.1,0.6-0.2,0.9-0.3c0.4-0.1,0.8-0.3,1.2-0.4c0.3-0.1,0.6-0.2,0.9-0.3c0.6-0.2,1.2-0.3,1.8-0.5
		c0.4-0.1,0.8-0.2,1.1-0.3c0,0,0,0,0.1,0c0.4-0.1,0.7-0.2,1.1-0.2c0.3-0.1,0.7-0.1,1-0.2c0.3,0,0.6-0.1,0.9-0.1
		c0.9-0.1,1.9-0.2,2.8-0.3c8.8-0.7,17.6,1.4,26,3.3c10.3,2.4,20,4.6,29.7,2.5c14-3.1,24.6-14.7,34.9-26c11.8-13,24-26.4,41.4-26.3
		c8.4,0,16.2,3.4,23.8,6.7c8.3,3.6,16.1,7,24.6,6.4c11.8-0.9,21.1-9.5,30.2-17.8c1.3-1.2,2.7-2.5,4.1-3.7c1.4-1.2,2.8-2.4,4.2-3.6
		c0.3-0.2,0.5-0.4,0.8-0.6l2.4-1.9c0.4-0.3,0.8-0.6,1.2-0.9l5.1-3.4c0.4-0.3,0.9-0.5,1.3-0.8l2.7-1.5c0.5-0.2,0.9-0.5,1.4-0.7
		c0.4-0.2,0.9-0.5,1.3-0.7l1.4-0.7c0.5-0.2,0.9-0.4,1.4-0.7c0.5-0.2,0.9-0.4,1.4-0.6l1.4-0.6c0.3-0.1,0.6-0.2,0.8-0.3
		c0.2-0.1,0.4-0.2,0.6-0.2c0.8-0.3,1.6-0.6,2.4-0.9c0.4-0.2,0.9-0.3,1.3-0.5c1.2-0.4,2.4-0.8,3.6-1.1c0.5-0.1,1-0.3,1.5-0.4
		c1-0.3,2-0.5,3-0.7c1.5-0.4,3-0.7,4.6-0.9c0.5-0.1,1.1-0.2,1.6-0.3c1-0.2,2-0.3,3-0.4c0.5-0.1,1-0.1,1.6-0.2
		c-2.1-5.2-4.5-10.2-7.2-15.1c-0.3-0.5-0.5-1-0.8-1.4c-11.8-21.2-28.3-39.5-48.6-53.5c-26.4-18.3-57.5-27.9-89.7-27.9
		c-87.2,0-158.2,71-158.2,158.2c0,12.2,1.4,24.4,4.2,36.2C58.4,303.9,58.6,303.7,58.8,303.5z M299.2,200c1.6-0.5,3.2,0.4,3.7,2
		c0.1,0.2,0.1,0.4,0.1,0.6c0.1,0.8-0.2,1.6-0.8,2.2c-0.3,0.4-0.8,0.7-1.4,0.9c-0.5,0.2-1.1,0.2-1.6,0h0c-0.8-0.2-1.5-0.7-1.9-1.5
		c-0.1-0.2-0.2-0.3-0.2-0.5C296.8,202.1,297.7,200.5,299.2,200z M257.9,142.5c1.6-0.5,3.2,0.4,3.7,2c0.5,1.6-0.4,3.2-2,3.7
		c-1.6,0.5-3.2-0.4-3.7-2C255.4,144.7,256.3,143,257.9,142.5z M234.3,221.3c1.6-0.5,3.3,0.4,3.7,2c0.5,1.6-0.4,3.2-2,3.7
		c-1.6,0.5-3.3-0.4-3.7-2C231.9,223.5,232.8,221.8,234.3,221.3z M218.8,168.1c1.6-0.5,3.2,0.4,3.7,2c0.5,1.6-0.4,3.3-2,3.7
		c-1.6,0.5-3.3-0.4-3.7-2C216.3,170.2,217.2,168.6,218.8,168.1z M170.2,217.1c1.6-0.5,3.2,0.4,3.7,2c0.5,1.6-0.4,3.2-2,3.7
		c-1.6,0.5-3.2-0.4-3.7-2C167.7,219.2,168.6,217.5,170.2,217.1z M165.7,191.9c-1.6,0.5-3.2-0.4-3.7-2c-0.5-1.6,0.4-3.3,2-3.7
		c1.6-0.5,3.2,0.4,3.7,2C168.2,189.8,167.3,191.5,165.7,191.9z M163.9,142.4c1.6-0.5,3.2,0.4,3.7,2c0.5,1.6-0.4,3.3-2,3.7
		c-1.6,0.5-3.2-0.4-3.7-2C161.4,144.6,162.3,142.9,163.9,142.4z M107.9,250.3c0.5,1.6-0.4,3.2-2,3.7c-1.6,0.5-3.2-0.4-3.7-2
		c-0.5-1.6,0.4-3.3,2-3.7C105.7,247.8,107.4,248.8,107.9,250.3z M101.4,189.4c1.6-0.5,3.2,0.4,3.7,2c0.5,1.6-0.4,3.2-2,3.7
		c-1.6,0.5-3.2-0.4-3.7-2C98.9,191.6,99.8,189.9,101.4,189.4z"/>
	<path d="M182.9,314.8c6.8,6,9.5,18.7,9.6,27.5c0.2,15.9-5.3,31.1-7.4,46.7c0.2,0.7,0.4,1.5,0.7,2.2c1.3,4.3,2.8,8.4,5.2,12.5
		c3.6,6,8.2,11.7,14.4,15c4.7,2.5,9.6,4.8,14.5,7.2c0,0,0,0,0,0c2.2-0.1,4.3-0.2,6.5-0.4c2.4-6.7,9.2-11,16.1-11.8
		c7.3-0.9,12.9,1.3,18.1,4.9c63.7-20.5,109.9-80.3,109.9-150.7c0-16.2-2.4-32-7.2-47.2c-0.3-0.9-0.5-1.7-0.8-2.6
		c-0.9-2.7-1.8-5.3-2.9-7.9c-0.2,0-0.4,0-0.6,0c-0.5,0-1,0.1-1.6,0.2c-0.5,0-0.9,0.1-1.4,0.2c-0.6,0.1-1.3,0.2-1.9,0.3
		c-0.4,0.1-0.8,0.1-1.2,0.2c-1.6,0.3-3.2,0.6-4.8,1c-1,0.2-2,0.5-3,0.8c-0.3,0.1-0.6,0.2-0.9,0.2c-0.4,0.1-0.8,0.2-1.2,0.4
		c-0.5,0.1-0.9,0.3-1.4,0.4c-0.6,0.2-1.3,0.4-1.9,0.6c-0.3,0.1-0.7,0.2-1,0.4c-0.3,0.1-0.7,0.2-1,0.4c-0.5,0.2-0.9,0.3-1.4,0.5
		c-1.6,0.6-3.1,1.3-4.6,2c-0.5,0.2-0.9,0.4-1.4,0.7c-1.4,0.7-2.7,1.4-4,2.1c-1.7,1-3.4,2-5,3.1c-1.3,0.9-2.6,1.8-3.8,2.7
		c-0.8,0.6-1.6,1.2-2.4,1.8c-0.7,0.6-1.4,1.2-2.1,1.8c-2.3,1.9-4.5,4-6.7,6c-9.4,8.6-19.1,17.5-31.8,18.5c-9.1,0.7-17.6-3-25.9-6.6
		c-7.3-3.2-14.9-6.5-22.7-6.5c-0.1,0-0.1,0-0.2,0c-16.1,0-27.3,12.3-39.2,25.4c-10.5,11.6-21.4,23.6-36.3,26.8
		c-10.3,2.3-20.8-0.2-30.9-2.5c-8.3-1.9-16.9-3.9-25.2-3.3c-1.2,0.1-2.3,0.2-3.5,0.4c-0.7,0.1-1.5,0.3-2.2,0.4c0,0-0.1,0-0.1,0
		c-0.4,0.1-0.8,0.2-1.1,0.3c-0.8,0.2-1.5,0.4-2.3,0.6c-0.4,0.1-0.8,0.2-1.1,0.4c-0.4,0.1-0.8,0.3-1.1,0.4c-0.5,0.2-1,0.4-1.5,0.6
		c-0.3,0.1-0.5,0.2-0.8,0.3c-2.3,1-4.5,2.2-6.7,3.5c-0.4,0.2-0.7,0.5-1.1,0.7c-0.3,0.2-0.5,0.3-0.8,0.5c-0.3,0.2-0.6,0.4-0.9,0.6
		c-1.3,0.9-2.6,1.9-3.9,3c-0.3,0.3-0.7,0.5-1,0.8c-0.4,0.3-0.7,0.6-1.1,0.9c-0.6,0.5-1.1,1-1.7,1.6c-0.5,0.5-1,1-1.5,1.5l-1,1
		c-0.6,0.6-1.2,1.2-1.8,1.8c1.2,4.7,2.6,9.3,4.2,13.8c2.8-2.1,5.6-4.1,8.5-5.9c5.3-3.4,17.4-10.1,25-7.8c3.1,0.5,5.6,2.2,6.7,5.8
		c2.8,9.5-6.8,19.3-12.6,25.5c-4.2,4.4-8.5,8.7-12.8,12.9c9.6,15.4,21.9,29.2,36.3,40.6c6.1,4.8,12.5,9.2,19.1,13h0
		c6.2-4.6,12.4-9.4,17-15.9c8.3-11.8,13.6-30.2,12.4-44.7c-0.6-7.3-6.2-24,0.3-30C168.2,309.6,177.7,310.3,182.9,314.8z"/>
	<path d="M232.2,511.2c13.3-4.5,29.1-9.9,39.4-19.9c6.5-6.3,13.4-15.3,10.6-25.2c-0.8-2.9-2.6-5.6-3-8.4c-3.6,4.4-8.8,7.8-13.1,11.6
		c-0.4,0.2-0.9,0.4-1.3,0.6c-0.8,0.4-2.3,1-3.6,1.8c0-0.2,0-0.4,0.1-0.6c3.1-6.2,9.4-9.3,14-14.1c3.5-3.7,7.1-9.2,4.3-14.6
		c-2.1-4.1-5.5-6.9-8.7-10c-1-1-2.1-2.1-3.1-3.2c-0.5-0.5-0.9-0.9-1.4-1.4c-0.5-0.5-1-1-1.6-1.6c-0.4-0.4-0.8-0.8-1.3-1.2
		c-0.4-0.3-0.7-0.7-1.1-1c-0.2-0.2-0.4-0.3-0.6-0.5c-0.3-0.3-0.6-0.5-1-0.8c-0.2-0.2-0.4-0.4-0.7-0.5c-0.2-0.2-0.5-0.4-0.7-0.5
		c-0.4-0.3-0.9-0.7-1.3-1c-0.4-0.2-0.7-0.5-1.1-0.7c-0.1-0.1-0.3-0.2-0.4-0.2c-0.2-0.1-0.5-0.3-0.7-0.4c-0.2-0.1-0.4-0.2-0.6-0.3
		c0,0,0,0,0,0c-0.3-0.2-0.7-0.3-1-0.5c-0.3-0.2-0.6-0.3-0.9-0.4c-0.4-0.2-0.8-0.3-1.2-0.5c-0.4-0.1-0.7-0.2-1.1-0.4
		c-0.3-0.1-0.6-0.2-0.9-0.2c-0.2,0-0.4-0.1-0.5-0.1c-0.2,0-0.5-0.1-0.7-0.1c-0.2,0-0.3-0.1-0.5-0.1c-0.1,0-0.3,0-0.4-0.1
		c-0.2,0-0.3,0-0.5,0c-0.8-0.1-1.6-0.1-2.4-0.1c-0.4,0-0.8,0-1.2,0c-0.1,0-0.2,0-0.3,0c0,0,0,0,0,0h-0.1c-0.1,0-0.3,0-0.5,0h-0.1
		c-0.3,0-0.6,0.1-0.9,0.1c-0.2,0-0.4,0-0.6,0.1c-0.3,0-0.6,0.1-0.9,0.2c-0.4,0.1-0.7,0.2-1.1,0.2c0,0-0.1,0-0.1,0c0,0,0,0,0,0
		c0,0,0,0,0,0c-0.2,0-0.3,0.1-0.5,0.1c-0.1,0-0.3,0.1-0.4,0.1c0,0-0.1,0-0.1,0c-0.2,0-0.4,0.1-0.5,0.2c-0.5,0.2-1,0.4-1.5,0.6
		c0,0-0.1,0-0.1,0c-0.3,0.1-0.5,0.2-0.8,0.4c0,0,0,0,0,0c0,0-0.1,0-0.1,0.1c-0.4,0.2-0.7,0.4-1.1,0.6c-0.4,0.2-0.7,0.5-1.1,0.7
		c-0.3,0.2-0.6,0.4-0.9,0.6c-0.2,0.1-0.3,0.2-0.5,0.4c-0.3,0.2-0.5,0.4-0.7,0.7c-0.2,0.1-0.3,0.3-0.5,0.5c-0.1,0.1-0.2,0.2-0.2,0.2
		c-0.3,0.3-0.5,0.6-0.7,0.9c-0.5,0.7-1,1.4-1.5,2.1c-0.1,0.1-0.1,0.2-0.2,0.3c-0.1,0.2-0.2,0.3-0.3,0.5c0,0,0,0,0,0.1
		c0,0,0,0.1-0.1,0.1c-0.1,0.2-0.2,0.3-0.2,0.5c-0.2,0.5-0.4,0.9-0.6,1.4c-0.1,0.3-0.2,0.6-0.3,0.9c0,0,0,0.1,0,0.1
		c4.8,2.4,9.6,5,14,8c2.6-0.6,5.3-0.7,8-0.8c7.1-0.2,14.7-0.3,21.7,1.5c0.3,0.1,0.5,0.3,0.6,0.5c-1-0.4-2.1-0.8-3.3-1
		c-2.8-0.3-5.6,0.3-8.3,1.2c-0.9,0.2-1.8,0.4-2.6,0.6c-8.1-0.7-16.3-0.8-23.4,2.9c-0.5,0.3-1-0.4-0.5-0.8c1.3-1.2,2.7-2.2,4.2-2.9
		c-6.4-2.9-12.7-6.4-19-9.6h0c-0.5-0.3-1.1-0.6-1.6-0.9c-0.1-0.1-0.3-0.1-0.4-0.2c-0.1-0.1-0.3-0.1-0.4-0.2
		c-0.9-0.4-1.7-0.9-2.6-1.3h0c-1.8-0.9-3.7-1.9-5.6-2.9c-0.5-0.3-0.9-0.5-1.4-0.8c-0.6-0.4-1.3-0.8-1.9-1.2c0,0-0.1-0.1-0.2-0.1
		c-0.3-0.2-0.6-0.4-0.9-0.6c-0.4-0.2-0.7-0.5-1.1-0.8c-0.3-0.2-0.6-0.5-0.9-0.7c0,0-0.1-0.1-0.1-0.1c-0.3-0.2-0.6-0.5-0.9-0.7
		c-0.3-0.3-0.7-0.6-1-0.9c-7.4-7.1-12.5-15.8-14.3-25.7c-0.6,6.8,0.1,12.5,4.4,18.3c2.7,3.7,5.9,6.9,8.8,10.4
		c-5.5-4.1-10.7-8.7-14.8-14.2c-0.5-1.3-0.9-2.6-1.1-3.9c-1.9-11.1,2.8-23.7,5-34.5c3-14.6,5.1-29.8-0.9-43.9
		c-2.3-5.4-6-9.2-11.9-9.9c-4-0.5-10.2-0.7-10.6,5.7c-0.2,3.6-0.1,7.1,0.4,10.6c1.8,12.2,2.7,22.8-0.2,35
		c-2.3,10-5.2,19.7-11.8,27.7c-0.3,0.4-0.6,0.8-0.9,1.1c-0.2,0.3-0.5,0.5-0.7,0.8c0,0,0,0-0.1,0.1c-0.2,0.3-0.5,0.6-0.8,0.9
		c-0.1,0.1-0.2,0.3-0.4,0.4c-0.3,0.3-0.6,0.7-0.9,1c-0.4,0.4-0.9,0.9-1.3,1.3c-0.2,0.2-0.4,0.4-0.6,0.6c-0.4,0.4-0.8,0.8-1.3,1.2
		c-0.2,0.1-0.3,0.3-0.5,0.4c-0.6,0.5-1.1,1-1.7,1.5c0,0,0,0-0.1,0.1c-0.6,0.5-1.3,1.1-1.9,1.6c-0.7,0.5-1.3,1.1-2,1.6
		c-0.6,0.5-1.2,1-1.9,1.4c-0.1,0-0.1,0.1-0.2,0.1c-0.4,0.3-0.8,0.6-1.1,0.9c-0.4,0.3-0.8,0.6-1.2,0.9c-1.6,1.2-3.3,2.4-5,3.5
		c-10.1,7-17.1,16.5-20.6,28.2c-0.6,1.6-1.1,3.1-1.3,4.7c-0.3,0.2-0.7,0.2-0.7-0.3c1.4-10.7,6.2-22.9,14.2-30.3
		c1.6-1.5,3.3-2.9,5-4.2c-5.6-4.2-15,2.1-18.8,6.4c-3.7,4.2-6.5,9-8.7,14.1c0,0,0,0.1-0.1,0.2c-1.1,2.7-2.1,5.4-2.9,8.2
		c-2.7,9.2-4.4,19.1-3.4,28.6c0.4,4.1,2.1,18.6,8.3,19.3c-1.8-5.2-2.3-10.6-0.7-16.3c0.6,5.3,2.3,10.6,4.8,15.3
		c1.1,3.1,2.5,6.1,4.4,9c0.1,0.1,0.2,0.2,0.2,0.2c3.8,6.4,8.6,12.3,13.3,18.2c5.5,6.9,11.5,13.4,18.2,19.2
		c6.7,5.7,13.8,11,19.9,17.3c5.6,5.7,11.2,16.5,20.3,16.2c8.5-0.2,18.5-3,26.7-5.5c8.6-2.7,17.8-5.8,25.3-10.9
		c6.8-4.7,10.2-11.1,15-17.3c-8.9,4.6-18.8,8-28.2,10.5c-1.9,0-3.8,0-5.7-0.1c0.1-0.4,0.4-0.7,0.8-0.9c12.7-5.5,26.5-8.7,38.4-16
		c5.9-3.6,11.7-8.5,15.3-14.6c2.1-3.6,4.8-8.6,4.7-13c-0.1-2.3-0.1-3.8,0.5-5.6c-0.1,0.1-0.1,0.1-0.2,0.2c-5.7,5.1-12.1,8.5-19,11.5
		c-7.7,3.2-15.5,6.9-23.7,8.3c-0.7,0.1-0.7-0.6-0.4-1.1C231,511.7,231.6,511.4,232.2,511.2z M204.3,531.9c-2.6,6.9-5.8,12.8-12,16.9
		c-1.3,0.8-2.3-0.9-1.3-1.9c5.5-5.6,8.7-12.2,11.4-19.6c2.9-7.9,6.6-15.8,8.4-24.1c0.1-0.5,0.9-0.7,0.8,0
		C210.9,512.7,207.7,522.9,204.3,531.9z M221.9,479.7c-0.1,0.1-0.1,0.2-0.2,0.3c-2.6,4.8-4,9.7-5.7,14.8c-0.5,1.3-2.8,1.4-2.5-0.2
		c2.1-15.6,19.8-27.2,10.8-43.6c-0.2-0.3,0.4-0.7,0.6-0.4c3.4,5.5,4.2,12.5,2.2,18.8c-1.1,3.5-2.8,6.1-4.6,9
		c3.8,1.1,10.6-1.7,13.8-2.6c4.8-1.4,9.6-3,14.5-4.5c1.6-0.5,1.8,1.8,0.4,2.4c-6.8,2.6-13.9,4.9-21,6.1
		C227.9,480.2,224.1,481.2,221.9,479.7z"/>
	<path d="M94.5,435.4c0.3-0.9,0.7-1.8,1.1-2.7c-3.1,0.8-6.3,0.5-9.6,0.5c-5.6,0-11.2-0.2-16.7-0.5c-9.4-0.5-19.1-0.7-28.1-3.8
		c-15.1-5.1-15.7-20.3-11.1-33.8c0.1-0.3,0.5-0.2,0.5,0.1c-1.8,6.8-3.2,15.2,0.5,21.6c0.7,1.2,1.5,2.3,2.4,3.2
		c-3.2-9.8,0.2-20.2,5.6-28.9c7.3-11.8,16.6-22.2,26.2-32.1c1-1.1,2.1-2.1,3.1-3.2c0.8-0.8,1.6-1.6,2.4-2.4c1.1-1.1,2.3-2.1,3.4-3.2
		c0.3-0.3,0.6-0.6,1-0.9c0.3-0.3,0.7-0.6,1-1c2-1.9,4-3.7,6-5.7c0.6-0.6,1.2-1.1,1.8-1.7c1.3-1.2,2.5-2.5,3.8-3.8
		c0.4-0.4,0.8-0.8,1.1-1.2c0.6-0.6,1.2-1.3,1.8-1.9c0.4-0.4,0.8-0.9,1.2-1.3c0.3-0.4,0.6-0.7,0.9-1.1c0.6-0.7,1.3-1.5,1.9-2.2
		c3.6-4.3,9.9-12.6,5.1-18c-5.7-3.1-11.1-2.9-17.6,0c-0.2,0.1-0.5,0.2-0.7,0.3c-0.7,0.4-1.4,0.8-2.1,1.1c-0.1,0-0.2,0.1-0.3,0.2
		c-0.7,0.4-1.4,0.8-2.1,1.2c-0.5,0.3-1,0.6-1.4,0.9c-0.7,0.5-1.4,0.9-2.1,1.4c-0.4,0.2-0.7,0.5-1.1,0.8c-0.7,0.4-1.3,0.9-1.9,1.4
		c-2.1,1.5-4.3,3.1-6.3,4.8c-0.4,0.3-0.7,0.6-1.1,0.9l-1.1,0.9c-1,0.8-2,1.6-3,2.4c-3.2,2.2-6.3,4.6-9.3,7.3
		c-4.9,4.3-9.3,8.8-13.6,13.7c-1.7,1.9-3.3,3.9-4.8,5.9c0,0-0.1-0.1-0.1-0.2C18,370.2,6.7,388,1.5,408.2
		c-3.1,12.1-1.6,23.5,6.4,33.1c5.8,7,12.9,12.6,21.2,16.3c9.5,4.3,19.7,7.1,29.8,9.2c9.5,2.1,20.6,3.9,30.4,2.2
		C88.3,457.6,90.2,446.2,94.5,435.4z"/>
</g>
</svg>
