<?xml version="1.0" encoding="utf-8"?>
<!-- Generator: Adobe Illustrator 25.2.0, SVG Export Plug-In . SVG Version: 6.00 Build 0)  -->
<svg version="1.1" id="Layer_1" xmlns="http://www.w3.org/2000/svg" xmlns:xlink="http://www.w3.org/1999/xlink" x="0px" y="0px"
	 viewBox="0 0 622.9 634.5" style="enable-background:new 0 0 622.9 634.5;" xml:space="preserve">
<style type="text/css">
	.st0{fill:#FF7B22;}
	.st1{fill:#16221F;}
	.st2{fill:#231F20;}
	.st3{fill:#00FF67;}
	.st4{fill:#A1D2FF;}
	.st5{fill:#FF1A41;}
	.st6{fill:#693220;}
</style>
<g>
	<g>
		<g>
			<g>
				<path class="st0" d="M563.2,186.7c0.2,0.4,0.6,0.7,1.1,1c2.3,1.8,5.2,2.8,8.1,3.1c1.6,0.2,3.3,0.2,5.1,0.1
					c7.6-0.3,16-2.8,20.6-8.6c5.6-7.1,7.4-17.9,8.3-26.8c0.6-6.3-0.1-13.3-6.7-14.8c-2.1-0.9-4.3-1.6-6.2-2.9
					c0.1,0.3,0.1,0.5,0.2,0.8c0.8,5,0.8,11.6-0.3,17.9c-1.1,6.1-3.3,12-6.7,15.7c-5.2,5.7-13.4,9.3-21.5,11.3
					c-0.1-0.1-0.3-0.1-0.5,0c-0.3,0.1-0.5,0.2-0.7,0.3c-0.1,0-0.2,0.1-0.3,0.1c-0.1,0.1-0.1,0.2-0.1,0.3
					C562.7,184.8,562.5,185.7,563.2,186.7z"/>
			</g>
			<g>
				<path class="st0" d="M539.1,177.4c4.2,7.2,12.9,5.9,20,4.5c4.5-0.9,9.4-2.4,14-4.5c5.1-1.6,10.3-4.3,13.6-8.2
					c3-3.5,4.8-8.2,5.7-12.9c0.4-2,0.6-3.9,0.7-5.8c0.2-3.5-0.2-6.8-1.1-10c-0.8-8.7-5.9-15.5-15.1-16.3c1,4.1,0.9,8.7,0.1,12.4
					c0,0.3-0.1,0.5-0.2,0.7c-1,4.2-2.9,8.2-4.8,12.1c-2.4,4.9-3.9,10.1-6.5,14.9c-3.8,7-15.1,9-21.8,11.5
					C542.2,176.3,540.7,176.9,539.1,177.4z"/>
			</g>
			<g>
				<path class="st0" d="M481.7,200.3c8.2,7.9,17.3,14.4,27.7,17.8c2.6,1,5.3,1.8,8,2.2s5.4,0.6,8.1,0.2c1.3-0.2,4.6-0.4,5.1-2.1
					c0-0.2,0.1-0.3,0-0.5c0-0.1,0-0.2,0-0.2c0.1-0.1,0.2-0.1,0.4-0.2c-0.2-0.1-0.4-0.2-0.6-0.2c-0.5-0.8-1.7-1.5-2.3-2
					c-2.3-1.9-4-4-5.2-6.6c0.2,0,0.4,0.1,0.5,0.2c5.2,4.7,9.7,6.9,16.7,6.9c5.8,0.1,12.1-0.6,17.4-2.9c7.2-3,18.9-12.8,20.8-21.1
					c-0.3,0-0.5,0-0.8,0c-2.3,0.1-4.6,0.1-6.7,0.1c-4.4,0.1-11.6-2.8-10.4-7.4c-1.8,0.3-3.5,0.6-5.2,0.7c-5.6,0.6-17.5,0.4-18.6-7.1
					c-5.1,1.5-10.5,2.2-15.5,0.2c-6.5-2.7-6.8-11.3-4.9-17c2.9-8.6,14.1-14.6,24-14.5c0-2.8,1.7-7,3.7-7.3c1.1-0.2,2.2,0.9,1.3,2
					c-0.8,0.8-1.6,2.1-2.1,3.3c-0.2,0.4-0.6,1.3-0.8,2.2c2.9,0.3,5.7,1.2,7.9,2.7c0.4,0.3,0.5,0.6,0.3,0.9c-6.3-3.8-15.2-2.4-22,1.5
					c-3.2,1.5-6.2,3.6-8,6.4c-0.3,0.4-0.6,0.8-0.8,1.1c-3,4.5-3.6,11.4,1,15.2c4.9,4,12.2,2.4,17.6,0.6c4.5-1.5,9.1-3.2,13.3-5.6
					c4.9-1.8,9.7-4,12.3-8.7c0.1-0.2,0.2-0.4,0.3-0.6c2.8-3,4.6-7,6.3-10.7c2-4.3,4.6-8.7,5.6-13.5c0.1-0.6,0.3-1.3,0.4-1.9
					c0.6-4.4-0.3-9.2-2.6-12.7c-0.4-0.7-0.8-1.4-1.3-2c-0.5-0.7-1-1.3-1.7-1.7c-2-1.6-4.5-2.5-7.4-2.6c-6.1-0.3-12.8,0.9-17.7,5
					c-0.9,0.7-2.4,1.8-3.8,3.1c2.1-3,4.2-5.8,7.4-7.8c2.7-1.7,6-2.6,9.2-3c4.5-3.4,9.2-6.3,14.5-8.9c10.6-5.1,20.9-10.4,30.2-18
					c8.1-6.7,15.6-16.5,16.7-27.5c0.8-8.6-7.3-16.9-14.8-9.9c-1.7,1.5-3.2,3.3-4.7,5c-2.6,1.9-4.9,4.6-7.1,6.9
					c-6,6.1-13.2,11.3-20.1,16.2c-6.5,4.6-13.3,8.3-20,12.5c-0.1,0.1-0.2,0.1-0.3,0.2c-0.7,0.5-1.4,0.9-2.2,1.4
					c-3.2,2.1-6.2,4.4-9.2,6.7c-0.1,0.1-0.2,0.2-0.4,0.2c-0.4,0.2-0.7,0.5-1.1,0.8c-3.4,2.7-6.7,5.6-10.1,8.4
					c-7.7,6.5-15.4,13.2-23.9,18.5c-1.2,0.7-7.6,3.8-11.6,4.7c1,0.7,2.2,1.3,3.7,1.8c4.3,1.3,8.3,2,12.2,4.4c4.5,2.7,8.7,8.6,8.9,14
					c0,0.4-0.1,0.6-0.3,0.8c-0.2-1.3-0.8-2.5-1.6-3.7c-1.8-3.8-5.9-7-9.2-8.7c-4.8-2.5-10.3-2.9-15-5.6c-1.3-0.7-2.4-1.6-3.3-2.7
					c-1.4-2-2.5-4.2-3.5-6.4c0-0.1,0.1-0.2,0.2-0.3c-0.4-0.7-0.7-1.3-1.1-1.9c-0.3-0.5-0.5-0.9-0.8-1.4c-0.3-0.7-0.7-1.5-1.1-2.2
					c-3.3-6.2-7.6-12.6-12.3-17.7c-3.8-4.2-8.8-7.9-14.3-9.9c-6.6-2.5-13.7-2.5-19.8,2l0,0c-0.2,0.1-0.3,0.2-0.5,0.3
					c-4,2.4-8.3,7-3.7,11.3c4,3.7,8.9,6.1,12.9,9.9c3.9,3.7,7.6,7.5,11,11.8c6.7,8.5,11.7,18.2,15.9,28.2
					c4.7,10.9,8.9,20.4,17.3,28.9c8.1,8.3,18.4,13.9,29.5,16.6c0.2,0,0.1,0.3-0.1,0.2c-20.5-3-36.4-16.5-45.3-35
					c-2.7,2.3-4.5,4.3-5.5,8.2c-0.4,1.5-0.4,3.1-0.3,4.7c-0.7,3.4,0.9,7.1,2.7,10C474,192.2,477.7,196.4,481.7,200.3z"/>
			</g>
			<g>
				<path class="st1" d="M370.7,219.1c16-4.3,31.9-8.5,47.5-14.3c8.7-3.2,17.2-7,25.6-11.1c3.5-1.7,6.9-3.6,10.3-5.6
					c2.9-1.7,9.2-4.4,11.7-7.4c-1.9-7.1,0.7-15.6,7.6-17.9c-0.6-1.3-1.2-2.7-1.7-4c-5.8-15-13.2-28.8-24.4-40.3
					c-4.9-5-10.6-8.7-16.1-12.9c-2-1.5-3.6-4.3-2.9-6.9c1.6-5.6,7.3-9,12.4-10.7c5.2-1.7,11.4-1,16.9,1.1l-0.4,1.2
					c-6.6-2.5-13.7-2.5-19.8,2l0,0c-0.2,0.1-0.3,0.2-0.5,0.3c-4,2.4-8.3,7-3.7,11.3c4,3.7,8.9,6.1,12.9,9.9c3.9,3.7,7.6,7.5,11,11.8
					c6.7,8.5,11.7,18.2,15.9,28.2c4.7,10.9,8.9,20.4,17.3,28.9c8.1,8.3,18.4,13.9,29.5,16.6c0.2,0,0.1,0.3-0.1,0.2
					c-20.5-3-36.4-16.5-45.3-35c-2.7,2.3-4.5,4.3-5.5,8.2c-0.4,1.5-0.4,3.1-0.3,4.7c-0.7,3.4,0.9,7.1,2.7,10
					c2.9,4.8,6.6,9,10.6,12.9c8.2,7.9,17.3,14.4,27.7,17.8c2.6,1,5.3,1.8,8,2.2s5.4,0.6,8.1,0.2c1.3-0.2,4.6-0.4,5.1-2.1
					c0-0.2,0.1-0.3,0-0.5c0-0.1,0-0.2,0-0.2c0.1-0.1,0.2-0.1,0.4-0.2c-0.2-0.1-0.4-0.2-0.6-0.2c-0.5-0.8-1.7-1.5-2.3-2
					c-2.3-1.9-4-4-5.2-6.6c0.2,0,0.4,0.1,0.5,0.2c5.2,4.7,9.7,6.9,16.7,6.9c5.8,0.1,12.1-0.6,17.4-2.9c7.2-3,18.9-12.8,20.8-21.1
					c-0.3,0-0.5,0-0.8,0v-0.9c7.6-0.3,16-2.8,20.6-8.6c5.6-7.1,7.4-17.9,8.3-26.8c0.6-6.3-0.1-13.3-6.7-14.8
					c-2.1-0.9-4.3-1.6-6.2-2.9l0.4-0.8c3.7,1.5,7.9,1.3,11,4.4c3.2,3.2,3.4,7.1,3,11.5c-0.8,9.7-1.5,23.6-8,31.1
					c-4.8,5.6-12.3,7.2-19.6,7.7c-0.2,5.2-3.7,9.2-7.1,12.7c-4.5,4.7-10,9.8-16.2,11.9c-6.1,2-14.7,3.5-22.1,2.2
					c-0.4,0.8-1.2,1.5-1.9,2c-1,0.6-2.2,1.1-3.4,1.4c-10,4.8-27-3.4-34.9-8.2c-0.2-0.1-0.4-0.3-0.6-0.4c-6.1,0.8-12.7,5.5-18.2,7.8
					c-7.6,3.2-15.3,6.5-23,9.6c-15.1,6-30.5,11.2-46.2,15.4c-15.1,4-30.6,7.2-46.2,8.8c-12.9,1.4-29.2,3.6-40.8-4.3
					c-9.9-6.8-1-16.2,6.3-19.7C339.8,224.2,356.1,223,370.7,219.1z M349.4,252.3c7.9-0.3,15.9-1.3,23.8-2.5
					c14.8-2.2,29.4-5.5,43.8-9.6c15.3-4.4,30.2-10.1,45-16.3c6.8-2.8,13.6-5.6,20.3-8.6c3-1.3,5.8-3,8.9-3.9
					c-5.2-3.6-10.2-7.9-14.2-12.7c-1.3-1.5-2.7-3.2-4-5c-2.8-3.5-5.2-7.4-6.6-11.6c-2.3,2.8-6.4,4.5-9.1,6.3
					c-6.6,4.3-13.5,7.8-20.6,11.2c-13.1,6.3-26.8,11.1-40.9,14.5c-14.7,3.5-29.1,7.7-43.8,11c-7.9,1.8-15.7,3.9-23.2,6.9
					c-3.3,1.3-6.4,3.5-8.6,6.3c-4.9,6,3.1,10.6,7.5,12.2C334.3,253.3,342.3,252.6,349.4,252.3z"/>
			</g>
			<g>
				<path class="st1" d="M516.3,161.3c-1.9,5.7-1.6,14.3,4.9,17c5,2,10.3,1.3,15.5-0.2c1.1,7.5,13,7.7,18.6,7.1
					c1.7-0.2,3.4-0.4,5.2-0.7c-1.2,4.6,6,7.5,10.4,7.4c2.1,0,4.4,0,6.7-0.1v-0.9c-1.7,0.1-3.5,0-5.1-0.1c-2.9-0.3-5.8-1.2-8.1-3.1
					c-0.5-0.3-0.8-0.6-1.1-1c-0.8-1-0.5-1.8,0.2-2.5c0-0.1,0.1-0.2,0.1-0.3c0.1,0,0.2-0.1,0.3-0.1c0.2-0.1,0.5-0.2,0.7-0.3
					s0.4,0,0.5,0c8.1-2,16.3-5.6,21.5-11.3c3.4-3.8,5.6-9.6,6.7-15.7l-0.9-0.2c-0.9,4.8-2.7,9.4-5.7,12.9c-3.3,3.9-8.5,6.6-13.6,8.2
					c-4.6,2.1-9.5,3.6-14,4.5c-7.1,1.4-15.8,2.7-20-4.5c1.6-0.5,3.1-1.1,4.6-1.6c6.8-2.4,18.1-4.5,21.8-11.5
					c2.6-4.7,4.1-10,6.5-14.9c1.9-3.9,3.8-7.8,4.8-12.1c0.1-0.2,0.1-0.5,0.2-0.7l-0.9-0.2c-1.1,4.7-3.7,9.2-5.6,13.5
					c-1.7,3.7-3.5,7.7-6.3,10.7c-0.1,0.2-0.2,0.4-0.3,0.6c-2.6,4.7-7.4,7-12.3,8.7c-4.2,2.4-8.8,4.1-13.3,5.6
					c-5.4,1.7-12.6,3.4-17.6-0.6c-4.7-3.8-4-10.7-1-15.2c0.3-0.4,0.5-0.8,0.8-1.1c1.8-2.9,4.8-5,8-6.4c6.8-3.9,15.8-5.3,22-1.5
					c0.1-0.3,0.1-0.6-0.3-0.9c-2.3-1.6-5-2.5-7.9-2.7c0.2-0.9,0.7-1.8,0.8-2.2c0.5-1.2,1.3-2.4,2.1-3.3c1-1-0.2-2.1-1.3-2
					c-2,0.3-3.7,4.4-3.7,7.3C530.4,146.7,519.2,152.8,516.3,161.3z"/>
			</g>
			<g>
				<path class="st1" d="M552.8,89.1c0.1,0,0.2-0.1,0.3-0.2c6.7-4.2,13.5-7.9,20-12.5c6.9-4.9,14.1-10.1,20.1-16.2
					c2.2-2.2,4.4-4.9,7.1-6.9c1.5-1.8,3.1-3.5,4.7-5c7.5-7,15.6,1.2,14.8,9.9c-1,11-8.5,20.9-16.7,27.5c-9.2,7.6-19.5,12.9-30.2,18
					c-5.3,2.5-10,5.5-14.5,8.9c-3.3,0.4-6.5,1.4-9.2,3c-3.2,1.9-5.3,4.8-7.4,7.8c1.4-1.3,2.9-2.3,3.8-3.1c4.8-4.1,11.5-5.3,17.7-5
					c2.9,0.1,5.5,1,7.4,2.6c0.7,0.5,1.2,1,1.7,1.7c0.5,0.6,0.9,1.3,1.3,2c2.2,3.5,3.2,8.4,2.6,12.7c-0.1,0.7-0.2,1.3-0.4,1.9
					l0.9,0.2c0.7-3.7,0.9-8.3-0.1-12.4c9.2,0.7,14.3,7.6,15.1,16.3c0.9,3.2,1.3,6.5,1.1,10c-0.1,1.9-0.3,3.9-0.7,5.8l0.9,0.2
					c1.1-6.2,1.2-12.8,0.3-17.9c0-0.3-0.1-0.6-0.2-0.8l0.4-0.8c-0.2-0.1-0.4-0.2-0.7-0.3c-2-8.2-8-14.2-16.7-13.8
					c-1-5.7-3.9-10.2-11.3-10.5c-0.6,0-1.2,0-1.8,0c1.7-1.2,3.5-2.4,5.4-3.4c5-2.7,10.3-4.9,15.4-7.6c10.6-5.7,20.9-12.2,28.8-21.5
					c5.1-5.9,10.4-15,9.8-23.3c-0.5-6.6-4.3-15.1-12-14.2c-4,0.5-6.8,2.3-9.4,5.5c-4.2,5-8.6,9.8-13.3,14.3
					c-2.4,2.3-4.9,4.6-7.4,6.8c-0.5,0.2-0.9,0.5-1.3,0.7c-2,1.7-4,3.4-6.2,4.8c-2,1.3-4.2,2.5-6.4,3.5c-3.3,1.9-6.6,3.5-10,5.3
					c-7.3,3.9-13.9,8.4-20.3,13.8c-7.6,6.5-15.1,13.1-23,19.3c-0.4,0.3-0.7,0.6-1.1,0.9c-1.2,0.9-2.4,1.8-3.7,2.7
					c-1.5,1.1-3.1,2.4-4.8,3.6c-3.7,2.4-7.8,4.3-11.7,4.5c-0.5-0.5-1-1-1.5-1.6c-0.9-1.4-1.7-3-2.4-4.3
					c-5.8-10.5-12.3-21.6-22.1-28.5c-2.5-1.8-5.5-3.4-8.7-4.6l-0.4,1.2c5.4,2,10.5,5.7,14.3,9.9c4.7,5.2,9.1,11.5,12.3,17.7
					c0.4,0.7,0.7,1.4,1.1,2.2c0.3,0.4,0.5,0.9,0.8,1.4c0.4,0.6,0.7,1.3,1.1,1.9c-0.1,0.1-0.2,0.2-0.2,0.3c1,2.2,2.1,4.5,3.5,6.4
					c0.9,1,2.1,1.9,3.3,2.7c4.6,2.7,10.2,3.1,15,5.6c3.3,1.7,7.4,4.9,9.2,8.7c0.9,1.2,1.5,2.4,1.6,3.7c0.2-0.2,0.3-0.5,0.3-0.8
					c-0.2-5.4-4.4-11.3-8.9-14c-4-2.3-7.9-3.1-12.2-4.4c-1.5-0.5-2.7-1.1-3.7-1.8c4-0.9,10.5-4,11.6-4.7c8.6-5.3,16.2-12,23.9-18.5
					c3.4-2.9,6.7-5.7,10.1-8.4c0.4-0.3,0.7-0.5,1.1-0.8c0.1-0.1,0.2-0.2,0.4-0.2c2.9-2.4,6-4.7,9.2-6.7
					C551.4,90.1,552.1,89.6,552.8,89.1z"/>
			</g>
		</g>
		<g>
			<path class="st2" d="M195.2,122.1c-0.7,0-1.3-0.5-1.5-1.2c-7.9-43.2,6.5-89.4,37.7-120.4c0.6-0.6,1.5-0.6,2.1,0s0.6,1.5,0,2.1
				c-30.4,30.3-44.6,75.5-36.8,117.7c0.1,0.8-0.4,1.6-1.2,1.7C195.4,122.1,195.3,122.1,195.2,122.1z"/>
		</g>
		<g>
			<path class="st3" d="M135,108.4c-32.4-18.3-45.1-58-69.5-86.1C93.1,29.9,120,40.6,143.4,57c19.9,13.9,48,39,52.3,64.2
				C176.8,123.5,151.6,117.8,135,108.4z"/>
			<path class="st2" d="M186.9,123.2c-17.3,0-37.8-5.1-52.6-13.5l0,0C113.4,97.9,100.5,77.1,87.9,57c-7.2-11.5-14.6-23.5-23.5-33.6
				c-0.4-0.5-0.5-1.2-0.1-1.8s1-0.8,1.7-0.7c31.5,8.6,57.1,20,78.3,34.8c11.1,7.8,47.8,35.6,52.9,65.2c0.1,0.4,0,0.8-0.3,1.2
				c-0.2,0.3-0.6,0.5-1,0.6C192.9,123.1,190,123.2,186.9,123.2z M135.8,107.1c16.2,9.2,40.3,14.4,58,12.8
				C188,92,153.2,65.7,142.5,58.2c-19.8-13.9-43.6-24.7-72.7-33.1c7.6,9.4,14.2,20,20.6,30.3C103.4,76.1,115.6,95.7,135.8,107.1
				L135.8,107.1z"/>
		</g>
		<g>
			<path class="st4" d="M349.4,252.3c7.9-0.3,15.9-1.3,23.8-2.5c14.8-2.2,29.4-5.5,43.8-9.6c15.3-4.4,30.2-10.1,45-16.3
				c6.8-2.8,13.6-5.6,20.3-8.6c3-1.3,5.8-3,8.9-3.9c-5.2-3.6-10.2-7.9-14.2-12.7c-1.3-1.5-2.7-3.2-4-5c-2.8-3.5-5.2-7.4-6.6-11.6
				c-2.3,2.8-6.4,4.5-9.1,6.3c-6.6,4.3-13.5,7.8-20.6,11.2c-13.1,6.3-26.8,11.1-40.9,14.5c-14.7,3.5-29.1,7.7-43.8,11
				c-7.9,1.8-15.7,3.9-23.2,6.9c-3.3,1.3-6.4,3.5-8.6,6.3c-4.9,6,3.1,10.6,7.5,12.2C334.3,253.3,342.3,252.6,349.4,252.3z"/>
		</g>
		<g>
			<g>
				<path d="M278.6,47.9l6.6,0.6l-5.2,56.6l-6.6-0.6l2.5-26.8l-25.7-2.4l-2.5,26.8l-6.6-0.6l5.2-56.6l6.6,0.6l-2.1,23.3l25.7,2.4
					L278.6,47.9z"/>
			</g>
			<g>
				<path d="M295,105.9l-1.9-6.9l0.8-7.3l3-8.9l3.8-6.3l5.7-4.3l8.9-1.1l8,2.7l6.4,6.3l1.9,6.9l-0.8,7.3l-3,8.9l-3.8,6.3l-5.7,4.3
					l-8.9,1l-8-2.7L295,105.9z M315.7,107.8l3.4-2.6l2.7-4.7l2.6-7.6l0.7-5.3l-1.2-4.1l-3.6-3.8l-5.9-2l-5.3,0.7l-3.3,2.6l-2.7,4.6
					l-2.6,7.6l-0.7,5.4l1.1,4.2l3.7,3.7l5.9,2L315.7,107.8z"/>
			</g>
			<g>
				<path d="M370.1,106.2l-2.5-3.6l-4.2-2.9l-6.8-0.3l-3.9,1.5L336,124.8l-5.4-3.8l24.1-34.6l5.4,3.8l-2.4,3.4l2.6-0.3l6.1,0.5
					l6,4.2l4.2,5.3l0.1,5.2l4.6-0.5l6.3,0.7l6,4.2l4.2,5.3l0.3,8.2l-19.6,28.2l-5.4-3.8l18.2-26.1l0.1-3.7l-2.6-3.4l-4.2-2.9
					l-6.7-0.2l-4.2,1.6l-16.5,23.6l-5.4-3.8l18-25.8L370.1,106.2z"/>
			</g>
			<g>
				<path d="M398.2,158.1l-1.6,6.3l1.2,5.3l3,3.7l4.5,3.4l4.7,1.6l-1.9,6.1l-5.9-1.9l-6-4.6l-4.2-5.2l-2-8.6l2.3-8.9l3.4-4.9l7.4-6
					l5.6-2.3l9.1-0.4l8,3.8l4.5,5.5l2.1,8.7l-2.4,8.8l-3,4.8l-6.5,5.3l-19.3-24.1l-0.6,0.5L398.2,158.1z M422,168.7l1.7-2.7l1.6-6.2
					l-1.1-5.4l-3.1-3.9l-4.9-2.2l-6.3,0.3l-3.3,1.5l-0.6,0.5l15.2,18.9L422,168.7z"/>
			</g>
			<g>
				<path d="M438.5,265.7l4.8-5.9l6.7-4.2l6.7-2.2l11.7-1.2l7.2,0.8l7.4,2.8l5.9,4.9l4.5,8l0.9,8.8l-2.4,8.6l-2.4,3.9l-3.3,3.5
					l-4.9-4.2l2.8-3.1l1.7-2.7l1.9-6.2l-0.7-6.7l-3.1-5.4l-4.2-3.4l-5.6-2.1l-5.5-0.6l-10.7,1.1l-5.2,1.8l-5,3.3l-3.4,4.1l-2.1,6
					l0.7,6.7l3.2,5.8l2.2,2.3l3.4,2.4l-4,5.2l-4-2.7l-3.2-3.3l-4.1-7.9l-0.9-8.8L438.5,265.7z"/>
			</g>
			<g>
				<path d="M478.9,316.7l-42.1-2.9l0.5-6.6l42.1,2.9L478.9,316.7z M497,319.4l-9.8-0.7l0.7-9.5l9.8,0.7L497,319.4z"/>
			</g>
			<g>
				<path d="M472.8,343.5l1.8,5.8l-1.7,7.2l-3.5,6.5l-7.5,3.2l-33.4-7.8l1.5-6.5l30.9,7.3l3.5-1.2l2.4-4.3l1.2-5l-2.3-6.4l-2.8-3.1
					l-28.3-6.7l1.5-6.5l41,9.6l-1.5,6.5l-4-1L472.8,343.5z"/>
			</g>
			<g>
				<path d="M434.8,378.8l-6.4,1.2l-4.3,3.3l-2.1,4.3l-1.2,5.5l0.6,4.9l-6.3,0.9l-0.8-6.2l1.6-7.4l2.9-6l7-5.5l9-1.7l5.8,1l8.6,4.2
					l4.5,4.1l4.2,8.1v8.9l-3.1,6.4l-7,5.6l-9,1.6l-5.6-0.7l-7.6-3.7l13.5-27.8l-0.7-0.3L434.8,378.8z M435.4,404.8l3.2,0.4l6.4-1.2
					l4.4-3.3l2.2-4.5l-0.1-5.4l-3-5.6l-2.7-2.4l-0.6-0.3l-10.6,21.8L435.4,404.8z"/>
			</g>
			<g>
				<path d="M416.1,447.9l3.9-2l3.4-3.8l1.1-6.7l-0.9-4.1L402,411.7l4.5-4.9l31.2,28.3l-4.5,4.9l-3.1-2.8v2.7l-1.3,6l-4.9,5.4
					l-5.8,3.5l-5.1-0.5l-0.1,4.6l-1.5,6.2l-4.9,5.4l-5.8,3.5l-8.1-0.8l-25.4-23.1l4.5-4.9l23.5,21.4l3.7,0.6l3.8-2.1l3.4-3.8l1-6.6
					l-1.1-4.4L384.5,431l4.5-4.9l23.3,21.1L416.1,447.9z"/>
			</g>
			<g>
				<path d="M377.5,488.7l-2,4.1l-3.6,4l-6.4,3.9l-5.7,1.8l-7.1-0.3l-4.7-3.5L335.4,478l-5-2.2l2.6-6.1l6.3,2.9l0.5-2.7l4.4-7
					l4.2-2.6l5.5-1.4l4.4-0.1l7.2,3.2l2.4,4l1.9,5.2l-2,8.1l-5.7,5.8l-4.4,2.7l-5.5,1.3l-2.3-0.2l3.2,5.2l2,1.6l4,0.1l3.8-1.2l4.9-3
					l2.4-2.7l1.3-2.7l0.5-2.1l6.3,1.7L377.5,488.7z M344.5,479.9l1.5,2.5l2.3,0.6l2.8-0.2l3.9-1.1l3.1-1.9l3.8-4l1-4.3l-0.9-2.7
					l-1-1.8l-3.9-1.7h-2.2l-3.8,1l-2.2,1.3l-4,5l-1,4.6L344.5,479.9z"/>
			</g>
		</g>
		<g>
			<g>
				<path class="st5" d="M108.6,318.7c20.9-1.7,41.7,11,62.2,6.5c34.3-7.6,49.4-58.4,84.5-58.2c18.8,0.1,35.2,16,53.9,14.6
					c18-1.4,30.4-17.6,44.4-28.9c14.5-11.8,32.8-18.8,51.4-20.3c-26.2-65.5-90.2-111.8-165-111.8c-98.1,0-177.6,79.5-177.6,177.6
					c0,14.9,1.9,29.4,5.3,43.3C79,329.3,92.3,320,108.6,318.7z"/>
				<path class="st2" d="M67.8,343c-0.1,0-0.2,0-0.4,0c-0.5-0.1-1-0.6-1.1-1.1c-3.6-14.2-5.4-28.9-5.4-43.7
					c0-98.8,80.4-179.1,179.1-179.1c36.5,0,71.7,10.9,101.6,31.6c29.3,20.2,51.7,48.2,64.8,81.1c0.2,0.4,0.1,0.9-0.1,1.3
					c-0.3,0.4-0.7,0.7-1.2,0.7c-18.5,1.4-36.5,8.5-50.6,20c-3.3,2.7-6.7,5.8-9.9,8.7c-10.4,9.6-21.2,19.5-35.4,20.6
					c-10.2,0.8-19.6-3.3-28.8-7.3c-8.2-3.5-16.6-7.2-25.3-7.2c-0.1,0-0.1,0-0.2,0c-17.9,0-30.4,13.7-43.6,28.3
					c-11.7,12.9-23.8,26.2-40.4,29.9c-11.5,2.5-23.1-0.2-34.3-2.8c-9.2-2.1-18.8-4.4-28.1-3.6l0,0c-14,1.1-27,8.4-39.8,22.3
					C68.6,342.8,68.2,343,67.8,343z M240.1,122.1C143,122.1,64,201.1,64,298.2c0,13.6,1.6,27.1,4.6,40.3
					c12.7-13.2,25.8-20.2,39.8-21.3l0,0c9.8-0.8,19.5,1.5,29,3.7c11.4,2.7,22.2,5.2,33,2.8c15.6-3.4,27.4-16.4,38.8-29
					c13.1-14.4,26.7-29.3,46-29.3c9.3,0,18,3.8,26.5,7.5c9.2,4,18,7.8,27.4,7.1c13.1-1,23.5-10.5,33.6-19.8c3.3-3,6.6-6.1,10-8.8
					c14.1-11.4,31.8-18.6,50.2-20.4c-13-31.5-34.7-58.4-63-77.9C310.6,132.8,276,122.1,240.1,122.1z M108.6,318.7L108.6,318.7
					L108.6,318.7z"/>
			</g>
			<g>
				<path class="st6" d="M353.7,252.6c-14,11.3-26.5,27.6-44.4,28.9c-18.7,1.4-35.1-14.5-53.9-14.6c-35.1-0.2-50.2,50.6-84.5,58.2
					c-20.5,4.5-41.3-8.1-62.2-6.5C92.3,320,79,329.3,67.8,341.5c19.3,77.2,89.1,134.3,172.3,134.3c98.1,0,177.6-79.5,177.6-177.6
					c0-23.3-4.5-45.5-12.6-65.9C386.5,233.8,368.2,240.9,353.7,252.6z"/>
				<path class="st2" d="M240.1,477.3c-40.7,0-79.1-13.3-111-38.5c-30.9-24.5-53.2-58.9-62.7-96.9c-0.1-0.5,0-1,0.4-1.4
					c13.3-14.5,27-22.1,41.8-23.3c9.8-0.8,19.5,1.5,29,3.7c11.4,2.7,22.2,5.2,33,2.8c15.6-3.4,27.4-16.4,38.8-29
					c13.1-14.4,26.7-29.3,46-29.3c9.3,0.1,18,3.8,26.5,7.5c9.2,4,18,7.8,27.4,7.1c13.1-1,23.5-10.5,33.6-19.8c3.3-3,6.6-6.1,10-8.8
					l0,0c14.6-11.8,33.1-19.1,52.2-20.6c0.6-0.1,1.3,0.3,1.5,0.9c8.4,21.1,12.7,43.5,12.7,66.4C419.2,397,338.9,477.3,240.1,477.3z
					 M69.5,341.9c9.5,37.1,31.3,70.6,61.5,94.5c31.3,24.8,69.1,37.9,109.1,37.9c97.1,0,176.1-79,176.1-176.1
					c0-22.2-4.1-43.8-12.1-64.3c-18.1,1.6-35.6,8.7-49.5,19.9l0,0c-3.3,2.7-6.7,5.8-9.9,8.7c-10.4,9.6-21.2,19.5-35.4,20.6
					c-10.2,0.8-19.6-3.3-28.8-7.3c-8.2-3.5-16.6-7.2-25.3-7.2c-0.1,0-0.1,0-0.2,0c-17.9,0-30.4,13.7-43.6,28.3
					c-11.7,12.9-23.8,26.2-40.4,29.9c-11.5,2.5-23.1-0.2-34.3-2.8c-9.2-2.1-18.8-4.4-28.1-3.6C94.9,321.3,82.1,328.4,69.5,341.9z"/>
			</g>
		</g>
		<g>
			<g>
				<path class="st1" d="M316.1,507.5c2.4,7.1,7,12.2,5.2,20.6c-1.6,7.4-6.1,14.1-11.4,19.4v0.1c0,0.4,0.1,0.7,0.1,1.1l-1.5,0.1
					c-0.1,0.1-0.1,0.1-0.2,0.2c-6.3,5.7-13.4,9.5-21.1,12.8c-8.5,3.6-17.3,7.7-26.4,9.3c-0.7,0.1-0.8-0.7-0.4-1.2
					c0.7-0.3,1.4-0.6,2.1-0.9c14.9-5,32.4-11.1,43.9-22.1c7.3-7,14.9-17.1,11.8-28c-0.9-3.2-2.9-6.2-3.3-9.4c-4,4.9-9.8,8.7-14.5,13
					c-0.5,0.2-0.9,0.4-1.4,0.6c-0.9,0.4-2.6,1.1-4,2c0-0.2,0-0.5,0.2-0.7c3.5-6.9,10.5-10.4,15.6-15.7c4-4.1,7.9-10.3,4.8-16.2
					c-2.4-4.6-6.1-7.6-9.7-11.2c-7.2-7.2-15.1-16.7-25.8-17.6c-10.3-0.9-20.3,3.5-23.7,13.9l-1.2-0.4c1.2-9.5,9.9-15.7,18.8-16.7
					c13.7-1.6,22.3,6.5,31.8,15.3c8,7.5,18,15.5,12.7,27.9C317.7,505.1,316.9,506.3,316.1,507.5z"/>
			</g>
			<g>
				<path class="st0" d="M318,518.8c3.1,11-4.5,21-11.8,28c-11.5,11.1-29,17.2-43.9,22.1c-0.7,0.3-1.4,0.6-2.1,0.9
					c-0.4,0.5-0.3,1.3,0.4,1.2c9.1-1.5,17.9-5.6,26.4-9.3c7.7-3.3,14.8-7.1,21.1-12.8c0.1-0.1,0.1-0.1,0.2-0.2
					c-0.6,2.1-0.6,3.8-0.5,6.3c0.1,4.9-2.8,10.4-5.2,14.4c-4,6.7-10.5,12.3-17,16.2c-13.3,8.1-28.7,11.7-42.8,17.8
					c-0.5,0.2-0.7,0.6-0.9,1c2.1,0.1,4.2,0.1,6.3,0.1c10.4-2.8,21.4-6.6,31.4-11.7c-5.3,6.9-9.1,14.1-16.7,19.3
					c-8.4,5.8-18.6,9.2-28.2,12.2c-9.1,2.8-20.2,5.9-29.7,6.1c-10.1,0.3-16.4-11.7-22.6-18c-6.8-7-14.8-12.9-22.2-19.2
					c-7.5-6.4-14.1-13.7-20.3-21.3c-5.3-6.6-10.7-13.2-14.8-20.3c-0.1-0.1-0.2-0.1-0.3-0.3c-2.1-3.2-3.6-6.6-4.8-10
					c-2.7-5.3-4.6-11.1-5.3-17.1c-1.8,6.3-1.2,12.3,0.8,18.1c-6.9-0.8-8.8-16.9-9.2-21.5c-1.1-10.6,0.8-21.7,3.8-31.9
					c0.9-3.1,2-6.1,3.3-9.1c0-0.1,0.1-0.1,0.1-0.2c2.4-5.7,5.6-11.1,9.6-15.7c4.2-4.9,14.7-11.8,21-7.2c-1.9,1.5-3.8,3.1-5.6,4.7
					c-9,8.2-14.3,21.8-15.9,33.7c-0.1,0.5,0.4,0.5,0.7,0.3c0.3-1.8,0.8-3.5,1.5-5.2c3.9-13.1,11.8-23.6,23-31.4
					c9.1-6.4,17.9-12.8,25.1-21.6c7.3-8.9,10.5-19.7,13.1-30.8c3.2-13.6,2.3-25.5,0.2-39c-0.6-3.9-0.7-7.8-0.5-11.8
					c0.5-7.1,7.4-6.8,11.8-6.3c6.6,0.7,10.7,5,13.2,11c6.6,15.7,4.3,32.6,1,48.8c-2.4,12.1-7.6,26.1-5.5,38.4
					c0.3,1.5,0.7,2.9,1.2,4.4c4.6,6.1,10.4,11.2,16.5,15.8c-3.2-3.9-6.8-7.6-9.8-11.6c-4.8-6.4-5.6-12.8-4.9-20.3
					c2,11.1,7.7,20.8,15.9,28.7c5.4,5.1,12.7,8.4,19.2,11.8c7.6,3.9,15.1,8.2,22.9,11.7c-1.7,0.8-3.3,1.8-4.7,3.2
					c-0.5,0.5,0,1.2,0.6,0.9c7.9-4,17.1-3.9,26.1-3.2c1-0.2,1.9-0.4,2.9-0.6c3-0.9,6.2-1.7,9.3-1.3c1.3,0.1,2.5,0.6,3.7,1.1
					c-0.1-0.3-0.3-0.5-0.7-0.6c-7.7-2-16.2-1.9-24.1-1.7c-3,0.1-6,0.3-8.9,0.9c-4.9-3.3-10.2-6.2-15.6-8.9c0-0.1,0-0.1,0.1-0.1
					c3.4-10.5,13.4-14.9,23.7-13.9c10.7,1,18.6,10.4,25.8,17.6c3.6,3.5,7.3,6.6,9.7,11.2c3.1,5.9-0.9,12.1-4.8,16.2
					c-5.1,5.3-12.1,8.9-15.6,15.7c-0.1,0.2-0.2,0.5-0.2,0.7c1.4-0.9,3.1-1.6,4-2c0.5-0.2,1-0.4,1.4-0.6c4.8-4.2,10.5-8.1,14.5-13
					C315.1,512.6,317,515.6,318,518.8z M283.5,527.3c1.5-0.6,1.4-3.2-0.4-2.6c-5.4,1.6-10.7,3.4-16.1,5c-3.6,1.1-11.2,4.2-15.4,2.9
					c1.9-3.3,3.8-6.2,5.1-10c2.2-7,1.3-14.8-2.5-20.9c-0.2-0.4-0.9,0-0.7,0.4c10,18.2-9.7,31.2-12.1,48.6c-0.3,1.8,2.3,1.7,2.8,0.2
					c1.9-5.7,3.5-11.1,6.4-16.5c0.1-0.1,0.1-0.2,0.2-0.3c2.5,1.7,6.6,0.5,9.3,0.1C268.1,532.8,276,530.2,283.5,527.3z M231.2,592
					c3.8-10,7.4-21.3,8.3-32c0-0.7-0.8-0.5-0.9,0.1c-2,9.3-6.1,18-9.4,26.9c-3,8.2-6.6,15.5-12.7,21.8c-1.1,1.1,0,3,1.4,2.1
					C224.8,606.3,228.3,599.7,231.2,592z"/>
			</g>
			<g>
				<path class="st1" d="M309.9,548.7c0.6,7.3,0.3,13.6-3.4,20.3c-3.5,6.2-8.3,11.8-13.9,16c-2.8,2.1-5.8,4-8.9,5.8
					c0,0.2,0,0.3-0.1,0.5c-3.9,8.6-9.3,17.5-17.1,22.9c-9.3,6.5-20.3,10.9-31.1,14c-10.2,2.9-22.2,6.6-32.9,6.1
					c-8.3-0.4-13.7-7.5-18.6-13.4c-7.8-9.4-17.8-16.4-26.9-24.4c-8.6-7.5-16.4-16.1-23.2-25.3c-5.5-7.5-12.7-16-16.8-25.2
					c-8.9,1.8-12.6-12.5-13.5-19.2c-0.1-0.4-0.1-0.8-0.2-1.3c-11.6,2.4-24.3,0.9-35.7-1.7c-11.5-2.7-23.4-5.5-34.1-10.7
					c-19-9.2-37.9-28.2-32.8-52c5.3-24.7,19.5-46.6,35.5-65.4c2-2.3,4-4.7,6.2-7c11.1-15.2,25.6-28,41.1-38
					c5.9-3.8,19.3-11.2,27.9-8.7c3.4,0.6,6.2,2.5,7.4,6.4c3.1,10.6-7.5,21.5-14,28.4C91.2,391.3,75.9,404,63,419.3
					c-12.1,14.4-24.8,30.2-19.6,50.3c0,0.1,0,0.1,0,0.2c5.1,3.8,11.7,5.3,17.9,6.1c16.8,2.1,33.6,0.9,50.3,1.9
					c4-8.8,9.5-17.7,17.8-22c3.8-2,13.5-5,16.4-0.4c8.9-6.8,18.4-12.9,25.1-22.4c9.2-13.1,15.2-33.6,13.8-49.7
					c-0.7-8.1-6.9-26.7,0.3-33.5c5.7-5.3,16.3-4.6,22,0.4c7.6,6.7,10.6,20.9,10.7,30.7c0.2,17.7-5.9,34.6-8.2,52
					c0.2,0.8,0.5,1.6,0.7,2.4l-1.1,0.4c-0.7,7.6,0.1,13.9,4.9,20.3c3,4.1,6.6,7.7,9.8,11.6c-6.1-4.6-11.9-9.7-16.5-15.8
					c-0.5-1.4-0.9-2.9-1.2-4.4c-2.1-12.4,3.1-26.3,5.5-38.4c3.3-16.3,5.6-33.1-1-48.8c-2.5-6-6.7-10.3-13.2-11
					c-4.4-0.5-11.4-0.7-11.8,6.3c-0.3,4-0.1,7.9,0.5,11.8c2,13.5,3,25.4-0.2,39c-2.6,11.1-5.8,21.9-13.1,30.8
					c-7.2,8.8-16,15.3-25.1,21.6c-11.2,7.8-19.1,18.4-23,31.4c-0.7,1.7-1.2,3.5-1.5,5.2c-0.3,0.2-0.8,0.2-0.7-0.3
					c1.6-11.9,6.9-25.5,15.9-33.7c1.8-1.6,3.7-3.2,5.6-4.7c-6.3-4.6-16.7,2.3-21,7.2c-4.1,4.7-7.2,10.1-9.6,15.7
					c0,0-0.1,0.1-0.1,0.2c-1.3,3-2.3,6-3.3,9.1c-3,10.2-4.9,21.2-3.8,31.9c0.5,4.6,2.3,20.7,9.2,21.5c-2-5.8-2.6-11.8-0.8-18.1
					c0.7,5.9,2.6,11.8,5.3,17.1c1.2,3.4,2.7,6.8,4.8,10c0.1,0.1,0.2,0.2,0.3,0.3c4.2,7.1,9.5,13.7,14.8,20.3
					c6.2,7.7,12.8,15,20.3,21.3c7.4,6.3,15.3,12.2,22.2,19.2c6.2,6.4,12.5,18.3,22.6,18c9.5-0.3,20.6-3.3,29.7-6.1
					c9.5-3,19.8-6.4,28.2-12.2c7.6-5.2,11.4-12.4,16.7-19.3c-9.9,5.1-20.9,8.9-31.4,11.7c-2.1,0-4.2,0-6.3-0.1
					c0.1-0.4,0.4-0.8,0.9-1c14.1-6.1,29.5-9.7,42.8-17.8c6.5-4,13-9.5,17-16.2c2.4-4,5.3-9.6,5.2-14.4c-0.1-2.5-0.1-4.2,0.5-6.3
					L309.9,548.7z M108.9,484.7c0.4-1,0.8-2,1.2-3c-3.4,0.9-7,0.6-10.6,0.5c-6.2,0-12.4-0.2-18.6-0.6c-10.5-0.6-21.3-0.8-31.3-4.2
					c-16.8-5.7-17.5-22.6-12.4-37.6c0.1-0.3,0.6-0.2,0.5,0.1c-2,7.5-3.5,16.9,0.6,24c0.8,1.3,1.7,2.5,2.7,3.6
					c-3.6-10.9,0.2-22.5,6.2-32.1c8.1-13.2,18.5-24.7,29.2-35.7c10.8-11.1,22.9-20.8,32.9-32.9c4-4.8,11-14,5.7-20
					c-6.3-3.4-12.4-3.2-19.6,0c-0.3,0.1-0.6,0.3-0.8,0.4c-8.8,4.8-17.2,11.2-25,17.7c-3.5,2.5-7,5.2-10.3,8.1
					c-5.4,4.8-10.4,9.8-15.2,15.3c-1.9,2.1-3.7,4.3-5.3,6.6c-0.1,0-0.1-0.1-0.1-0.2C24,412.1,11.4,431.9,5.6,454.4
					c-3.4,13.4-1.8,26.1,7.1,36.8c6.5,7.8,14.4,14,23.6,18.1c10.5,4.7,21.9,7.9,33.2,10.3c10.6,2.3,22.9,4.4,33.8,2.5
					C102.1,509.3,104.3,496.7,108.9,484.7z"/>
			</g>
			<g>
				<path class="st1" d="M304.6,487.3c0.4,0.1,0.6,0.3,0.7,0.6c-1.2-0.5-2.3-0.9-3.7-1.1c-3.1-0.3-6.3,0.4-9.3,1.3
					c-1,0.2-2,0.4-2.9,0.6c-9-0.7-18.2-0.9-26.1,3.2c-0.6,0.3-1.1-0.4-0.6-0.9c1.4-1.4,3-2.4,4.7-3.2c-7.8-3.5-15.4-7.8-22.9-11.7
					c-6.5-3.4-13.8-6.6-19.2-11.8c-8.3-7.9-13.9-17.6-15.9-28.7l1.1-0.4c1.5,4.8,3.1,9.4,5.8,14c4,6.7,9.1,13,16,16.7
					c7.3,3.9,15,7.3,22.6,11.1l1.2,0.4c0,0,0,0.1-0.1,0.1c5.4,2.7,10.6,5.5,15.6,8.9c2.9-0.7,5.9-0.8,8.9-0.9
					C288.4,485.4,296.9,485.4,304.6,487.3z"/>
			</g>
			<g>
				<path class="st1" d="M283.1,524.6c1.8-0.5,2,2,0.4,2.6c-7.5,2.9-15.4,5.5-23.4,6.8c-2.7,0.4-6.8,1.6-9.3-0.1
					c-0.1,0.1-0.1,0.2-0.2,0.3c-2.9,5.3-4.5,10.8-6.4,16.5c-0.5,1.5-3.1,1.6-2.8-0.2c2.4-17.4,22-30.3,12.1-48.6
					c-0.2-0.4,0.4-0.8,0.7-0.4c3.8,6.1,4.7,13.9,2.5,20.9c-1.2,3.9-3.1,6.7-5.1,10c4.2,1.2,11.8-1.9,15.4-2.9
					C272.4,528,277.7,526.2,283.1,524.6z"/>
			</g>
			<g>
				<path class="st1" d="M239.4,560c-0.9,10.7-4.4,22-8.3,32c-2.9,7.7-6.4,14.3-13.3,18.8c-1.4,0.9-2.5-1-1.4-2.1
					c6.1-6.3,9.7-13.6,12.7-21.8c3.3-8.8,7.4-17.6,9.4-26.9C238.6,559.5,239.5,559.4,239.4,560z"/>
			</g>
		</g>
		<g>
			<path class="st4" d="M108.9,484.7c0.4-1,0.8-2,1.2-3c-3.4,0.9-7,0.6-10.6,0.5c-6.2,0-12.4-0.2-18.6-0.6
				c-10.5-0.6-21.3-0.8-31.3-4.2c-16.8-5.7-17.5-22.6-12.4-37.6c0.1-0.3,0.6-0.2,0.5,0.1c-2,7.5-3.5,16.9,0.6,24
				c0.8,1.3,1.7,2.5,2.7,3.6c-3.6-10.9,0.2-22.5,6.2-32.1c8.1-13.2,18.5-24.7,29.2-35.7c10.8-11.1,22.9-20.8,32.9-32.9
				c4-4.8,11-14,5.7-20c-6.3-3.4-12.4-3.2-19.6,0c-0.3,0.1-0.6,0.3-0.8,0.4c-8.8,4.8-17.2,11.2-25,17.7c-3.5,2.5-7,5.2-10.3,8.1
				c-5.4,4.8-10.4,9.8-15.2,15.3c-1.9,2.1-3.7,4.3-5.3,6.6c-0.1,0-0.1-0.1-0.1-0.2C24,412.1,11.4,431.9,5.6,454.4
				c-3.4,13.4-1.8,26.1,7.1,36.8c6.5,7.8,14.4,14,23.6,18.1c10.5,4.7,21.9,7.9,33.2,10.3c10.6,2.3,22.9,4.4,33.8,2.5
				C102.1,509.3,104.3,496.7,108.9,484.7z"/>
		</g>
	</g>
	<g>
		<circle cx="120.7" cy="279.6" r="3.3"/>
		<circle cx="194.2" cy="244.8" r="3.3"/>
		<circle cx="187.2" cy="161.7" r="3.3"/>
		<circle cx="117.6" cy="214" r="3.3"/>
		<circle cx="248.3" cy="190.3" r="3.3"/>
		<circle cx="187.3" cy="210.5" r="3.3"/>
		<circle cx="337.8" cy="225.8" r="3.3"/>
		<circle cx="265.6" cy="249.6" r="3.3"/>
		<circle cx="291.9" cy="161.8" r="3.3"/>
	</g>
</g>
</svg>
